G75*
%MOIN*%
%OFA0B0*%
%FSLAX24Y24*%
%IPPOS*%
%LPD*%
%AMOC8*
5,1,8,0,0,1.08239X$1,22.5*
%
%ADD10C,0.0000*%
%ADD11C,0.0827*%
%ADD12R,0.0473X0.0434*%
%ADD13R,0.0920X0.0520*%
%ADD14R,0.0906X0.1457*%
%ADD15R,0.0434X0.0473*%
%ADD16R,0.0453X0.0414*%
%ADD17R,0.0355X0.0394*%
%ADD18C,0.0130*%
%ADD19C,0.0780*%
%ADD20C,0.0788*%
%ADD21C,0.0600*%
%ADD22R,0.0946X0.0670*%
D10*
X003031Y003256D02*
X003031Y006602D01*
X003033Y006641D01*
X003039Y006679D01*
X003048Y006716D01*
X003061Y006753D01*
X003078Y006788D01*
X003097Y006821D01*
X003120Y006852D01*
X003146Y006881D01*
X003175Y006907D01*
X003206Y006930D01*
X003239Y006949D01*
X003274Y006966D01*
X003311Y006979D01*
X003348Y006988D01*
X003386Y006994D01*
X003425Y006996D01*
X005787Y006996D01*
X005787Y013492D01*
X003425Y013492D01*
X003425Y013491D02*
X003386Y013493D01*
X003348Y013499D01*
X003311Y013508D01*
X003274Y013521D01*
X003239Y013538D01*
X003206Y013557D01*
X003175Y013580D01*
X003146Y013606D01*
X003120Y013635D01*
X003097Y013666D01*
X003078Y013699D01*
X003061Y013734D01*
X003048Y013771D01*
X003039Y013808D01*
X003033Y013846D01*
X003031Y013885D01*
X003031Y019161D01*
X003033Y019200D01*
X003039Y019238D01*
X003048Y019275D01*
X003061Y019312D01*
X003078Y019347D01*
X003097Y019380D01*
X003120Y019411D01*
X003146Y019440D01*
X003175Y019466D01*
X003206Y019489D01*
X003239Y019508D01*
X003274Y019525D01*
X003311Y019538D01*
X003348Y019547D01*
X003386Y019553D01*
X003425Y019555D01*
X009645Y019555D01*
X009671Y019557D01*
X009696Y019562D01*
X009720Y019570D01*
X009744Y019581D01*
X009765Y019596D01*
X009784Y019613D01*
X009801Y019632D01*
X009816Y019654D01*
X009827Y019677D01*
X009835Y019701D01*
X009840Y019726D01*
X009842Y019752D01*
X009842Y020578D01*
X010630Y021466D02*
X011889Y021466D01*
X011944Y021460D01*
X011998Y021452D01*
X012051Y021440D01*
X012104Y021424D01*
X012156Y021405D01*
X012206Y021383D01*
X012254Y021357D01*
X012301Y021328D01*
X012346Y021297D01*
X012389Y021262D01*
X012429Y021225D01*
X012467Y021185D01*
X012502Y021143D01*
X012534Y021098D01*
X012563Y021052D01*
X012589Y021003D01*
X012612Y020954D01*
X012632Y020902D01*
X012648Y020850D01*
X012661Y020796D01*
X012670Y020742D01*
X012676Y020688D01*
X012678Y020633D01*
X012677Y020578D01*
X012677Y003256D01*
X012676Y003256D02*
X012674Y003202D01*
X012669Y003149D01*
X012660Y003096D01*
X012647Y003044D01*
X012631Y002992D01*
X012611Y002942D01*
X012588Y002894D01*
X012561Y002847D01*
X012532Y002802D01*
X012499Y002759D01*
X012464Y002719D01*
X012426Y002681D01*
X012386Y002646D01*
X012343Y002613D01*
X012298Y002584D01*
X012251Y002557D01*
X012203Y002534D01*
X012153Y002514D01*
X012101Y002498D01*
X012049Y002485D01*
X011996Y002476D01*
X011943Y002471D01*
X011889Y002469D01*
X011889Y002468D02*
X003819Y002468D01*
X003819Y002469D02*
X003765Y002471D01*
X003712Y002476D01*
X003659Y002485D01*
X003607Y002498D01*
X003555Y002514D01*
X003505Y002534D01*
X003457Y002557D01*
X003410Y002584D01*
X003365Y002613D01*
X003322Y002646D01*
X003282Y002681D01*
X003244Y002719D01*
X003209Y002759D01*
X003176Y002802D01*
X003147Y002847D01*
X003120Y002894D01*
X003097Y002942D01*
X003077Y002992D01*
X003061Y003044D01*
X003048Y003096D01*
X003039Y003149D01*
X003034Y003202D01*
X003032Y003256D01*
X003621Y003452D02*
X003623Y003491D01*
X003629Y003530D01*
X003639Y003568D01*
X003652Y003605D01*
X003669Y003640D01*
X003689Y003674D01*
X003713Y003705D01*
X003740Y003734D01*
X003769Y003760D01*
X003801Y003783D01*
X003835Y003803D01*
X003871Y003819D01*
X003908Y003831D01*
X003947Y003840D01*
X003986Y003845D01*
X004025Y003846D01*
X004064Y003843D01*
X004103Y003836D01*
X004140Y003825D01*
X004177Y003811D01*
X004212Y003793D01*
X004245Y003772D01*
X004276Y003747D01*
X004304Y003720D01*
X004329Y003690D01*
X004351Y003657D01*
X004370Y003623D01*
X004385Y003587D01*
X004397Y003549D01*
X004405Y003511D01*
X004409Y003472D01*
X004409Y003432D01*
X004405Y003393D01*
X004397Y003355D01*
X004385Y003317D01*
X004370Y003281D01*
X004351Y003247D01*
X004329Y003214D01*
X004304Y003184D01*
X004276Y003157D01*
X004245Y003132D01*
X004212Y003111D01*
X004177Y003093D01*
X004140Y003079D01*
X004103Y003068D01*
X004064Y003061D01*
X004025Y003058D01*
X003986Y003059D01*
X003947Y003064D01*
X003908Y003073D01*
X003871Y003085D01*
X003835Y003101D01*
X003801Y003121D01*
X003769Y003144D01*
X003740Y003170D01*
X003713Y003199D01*
X003689Y003230D01*
X003669Y003264D01*
X003652Y003299D01*
X003639Y003336D01*
X003629Y003374D01*
X003623Y003413D01*
X003621Y003452D01*
X011299Y003452D02*
X011301Y003491D01*
X011307Y003530D01*
X011317Y003568D01*
X011330Y003605D01*
X011347Y003640D01*
X011367Y003674D01*
X011391Y003705D01*
X011418Y003734D01*
X011447Y003760D01*
X011479Y003783D01*
X011513Y003803D01*
X011549Y003819D01*
X011586Y003831D01*
X011625Y003840D01*
X011664Y003845D01*
X011703Y003846D01*
X011742Y003843D01*
X011781Y003836D01*
X011818Y003825D01*
X011855Y003811D01*
X011890Y003793D01*
X011923Y003772D01*
X011954Y003747D01*
X011982Y003720D01*
X012007Y003690D01*
X012029Y003657D01*
X012048Y003623D01*
X012063Y003587D01*
X012075Y003549D01*
X012083Y003511D01*
X012087Y003472D01*
X012087Y003432D01*
X012083Y003393D01*
X012075Y003355D01*
X012063Y003317D01*
X012048Y003281D01*
X012029Y003247D01*
X012007Y003214D01*
X011982Y003184D01*
X011954Y003157D01*
X011923Y003132D01*
X011890Y003111D01*
X011855Y003093D01*
X011818Y003079D01*
X011781Y003068D01*
X011742Y003061D01*
X011703Y003058D01*
X011664Y003059D01*
X011625Y003064D01*
X011586Y003073D01*
X011549Y003085D01*
X011513Y003101D01*
X011479Y003121D01*
X011447Y003144D01*
X011418Y003170D01*
X011391Y003199D01*
X011367Y003230D01*
X011347Y003264D01*
X011330Y003299D01*
X011317Y003336D01*
X011307Y003374D01*
X011301Y003413D01*
X011299Y003452D01*
X009842Y020578D02*
X009841Y020633D01*
X009843Y020688D01*
X009849Y020742D01*
X009858Y020796D01*
X009871Y020850D01*
X009887Y020902D01*
X009907Y020954D01*
X009930Y021003D01*
X009956Y021052D01*
X009985Y021098D01*
X010017Y021143D01*
X010052Y021185D01*
X010090Y021225D01*
X010130Y021262D01*
X010173Y021297D01*
X010218Y021328D01*
X010265Y021357D01*
X010313Y021383D01*
X010363Y021405D01*
X010415Y021424D01*
X010468Y021440D01*
X010521Y021452D01*
X010575Y021460D01*
X010630Y021466D01*
D11*
X011693Y003452D03*
X004015Y003452D03*
D12*
X006860Y007198D03*
X007529Y007198D03*
X009636Y007095D03*
X009636Y007765D03*
X010352Y007765D03*
X010352Y007095D03*
X011145Y007116D03*
X011145Y007785D03*
X009092Y011954D03*
X009092Y012623D03*
X007912Y012352D03*
X007912Y011683D03*
X007250Y011667D03*
X007250Y012337D03*
X006594Y012323D03*
X006594Y011654D03*
X012205Y015920D03*
X012205Y016589D03*
D13*
X007005Y010575D03*
X007005Y009665D03*
X007005Y008755D03*
D14*
X009445Y009665D03*
D15*
X009852Y011907D03*
X009852Y012576D03*
X010615Y012576D03*
X010615Y011907D03*
X011327Y011907D03*
X011327Y012576D03*
X010966Y017189D03*
X010966Y017858D03*
D16*
X004761Y006396D03*
X004761Y005176D03*
D17*
X011259Y010244D03*
X011633Y009417D03*
X012007Y010244D03*
D18*
X012053Y017142D02*
X012357Y017142D01*
X012053Y017142D02*
X012053Y017446D01*
X012357Y017446D01*
X012357Y017142D01*
X012357Y017271D02*
X012053Y017271D01*
X012053Y017400D02*
X012357Y017400D01*
X012357Y017833D02*
X012053Y017833D01*
X012053Y018137D01*
X012357Y018137D01*
X012357Y017833D01*
X012357Y017962D02*
X012053Y017962D01*
X012053Y018091D02*
X012357Y018091D01*
X003615Y017818D02*
X003311Y017818D01*
X003311Y018122D01*
X003615Y018122D01*
X003615Y017818D01*
X003615Y017947D02*
X003311Y017947D01*
X003311Y018076D02*
X003615Y018076D01*
X003615Y017127D02*
X003311Y017127D01*
X003311Y017431D01*
X003615Y017431D01*
X003615Y017127D01*
X003615Y017256D02*
X003311Y017256D01*
X003311Y017385D02*
X003615Y017385D01*
D19*
X006574Y005161D03*
X007509Y005161D03*
X008396Y005161D03*
X009330Y005161D03*
X011313Y020636D03*
D20*
X010236Y004216D03*
X005669Y004216D03*
D21*
X007067Y014317D03*
X007460Y015104D03*
X007854Y014317D03*
X008248Y015104D03*
X008641Y014317D03*
D22*
X009045Y016667D03*
X006565Y016667D03*
M02*
