%
M48
M72
T01C0.0120
T02C0.0360
T03C0.0394
T04C0.0400
T05C0.0787
%
T01
X11918Y20725
X11833Y20325
X11783Y19885
X11583Y19494
X11383Y19154
X11118Y18894
X10831Y18262
X10768Y18685
X10383Y19525
X9983Y19475
X3425Y6602
X3425Y6011
X6574Y6208
X7165Y6208
X7756Y6208
X8346Y6208
X8937Y6208
X9527Y6208
X9631Y6612
X10118Y6208
X10431Y6612
X11231Y6612
X10381Y8112
X9931Y8312
X10905Y9161
X10481Y10262
X10511Y10933
X10981Y10562
X11496Y10933
X11631Y11512
X12283Y11720
X12283Y11130
X11681Y9962
X12031Y9462
X12283Y8964
X12283Y8374
X12283Y6405
X12283Y5815
X12283Y5224
X12283Y4633
X12283Y4043
X8881Y8262
X8149Y8767
X8081Y7862
X7131Y7962
X7081Y9212
X8149Y10539
X8681Y9662
X9031Y11062
X8431Y11562
X8731Y12462
X9481Y12312
X9731Y11412
X10981Y12362
X10331Y13812
X10631Y15812
X10400Y16669
X9731Y16562
X9281Y17762
X8781Y18012
X8543Y19200
X9134Y19200
X11718Y21075
X11368Y21225
X10968Y21125
X10718Y20825
X10683Y19825
X10833Y20225
X11681Y17862
X11581Y17062
X11231Y15762
X11581Y15112
X12331Y15512
X11981Y12612
X8231Y13962
X7381Y14012
X6731Y14912
X6381Y15312
X6378Y15854
X5787Y15657
X5197Y15657
X4606Y15657
X4381Y15062
X4015Y15657
X4015Y16641
X4015Y17626
X4331Y18212
X4606Y19200
X5197Y19200
X5787Y19200
X6378Y19200
X6968Y19200
X7559Y19200
X4381Y14262
X4803Y13885
X5590Y13885
X6531Y12662
X7281Y12662
X7231Y11312
X6531Y11062
X3425Y15657
T02
X6574Y5161
X7509Y5161
X8396Y5161
X9330Y5161
T03
X5669Y4216
X10236Y4216
T04
X11313Y20636
T05
X4015Y3452
X11693Y3452
M30
