G75*
%MOIN*%
%OFA0B0*%
%FSLAX24Y24*%
%IPPOS*%
%LPD*%
%AMOC8*
5,1,8,0,0,1.08239X$1,22.5*
%
%ADD10C,0.0000*%
%ADD11C,0.0740*%
%ADD12C,0.0748*%
%ADD13R,0.0472X0.0787*%
%ADD14R,0.1000X0.0500*%
%ADD15C,0.0240*%
%ADD16C,0.0100*%
%ADD17C,0.0080*%
%ADD18C,0.0160*%
%ADD19C,0.0400*%
D10*
X003031Y003256D02*
X003031Y006602D01*
X003033Y006641D01*
X003039Y006679D01*
X003048Y006716D01*
X003061Y006753D01*
X003078Y006788D01*
X003097Y006821D01*
X003120Y006852D01*
X003146Y006881D01*
X003175Y006907D01*
X003206Y006930D01*
X003239Y006949D01*
X003274Y006966D01*
X003311Y006979D01*
X003348Y006988D01*
X003386Y006994D01*
X003425Y006996D01*
X005787Y006996D01*
X005787Y013492D01*
X003425Y013492D01*
X003425Y013491D02*
X003386Y013493D01*
X003348Y013499D01*
X003311Y013508D01*
X003274Y013521D01*
X003239Y013538D01*
X003206Y013557D01*
X003175Y013580D01*
X003146Y013606D01*
X003120Y013635D01*
X003097Y013666D01*
X003078Y013699D01*
X003061Y013734D01*
X003048Y013771D01*
X003039Y013808D01*
X003033Y013846D01*
X003031Y013885D01*
X003031Y019161D01*
X003033Y019200D01*
X003039Y019238D01*
X003048Y019275D01*
X003061Y019312D01*
X003078Y019347D01*
X003097Y019380D01*
X003120Y019411D01*
X003146Y019440D01*
X003175Y019466D01*
X003206Y019489D01*
X003239Y019508D01*
X003274Y019525D01*
X003311Y019538D01*
X003348Y019547D01*
X003386Y019553D01*
X003425Y019555D01*
X009645Y019555D01*
X009671Y019557D01*
X009696Y019562D01*
X009720Y019570D01*
X009744Y019581D01*
X009765Y019596D01*
X009784Y019613D01*
X009801Y019632D01*
X009816Y019654D01*
X009827Y019677D01*
X009835Y019701D01*
X009840Y019726D01*
X009842Y019752D01*
X009842Y020578D01*
X010630Y021466D02*
X011889Y021466D01*
X011944Y021460D01*
X011998Y021452D01*
X012051Y021440D01*
X012104Y021424D01*
X012156Y021405D01*
X012206Y021383D01*
X012254Y021357D01*
X012301Y021328D01*
X012346Y021297D01*
X012389Y021262D01*
X012429Y021225D01*
X012467Y021185D01*
X012502Y021143D01*
X012534Y021098D01*
X012563Y021052D01*
X012589Y021003D01*
X012612Y020954D01*
X012632Y020902D01*
X012648Y020850D01*
X012661Y020796D01*
X012670Y020742D01*
X012676Y020688D01*
X012678Y020633D01*
X012677Y020578D01*
X012677Y003256D01*
X012676Y003256D02*
X012674Y003202D01*
X012669Y003149D01*
X012660Y003096D01*
X012647Y003044D01*
X012631Y002992D01*
X012611Y002942D01*
X012588Y002894D01*
X012561Y002847D01*
X012532Y002802D01*
X012499Y002759D01*
X012464Y002719D01*
X012426Y002681D01*
X012386Y002646D01*
X012343Y002613D01*
X012298Y002584D01*
X012251Y002557D01*
X012203Y002534D01*
X012153Y002514D01*
X012101Y002498D01*
X012049Y002485D01*
X011996Y002476D01*
X011943Y002471D01*
X011889Y002469D01*
X011889Y002468D02*
X003819Y002468D01*
X003819Y002469D02*
X003765Y002471D01*
X003712Y002476D01*
X003659Y002485D01*
X003607Y002498D01*
X003555Y002514D01*
X003505Y002534D01*
X003457Y002557D01*
X003410Y002584D01*
X003365Y002613D01*
X003322Y002646D01*
X003282Y002681D01*
X003244Y002719D01*
X003209Y002759D01*
X003176Y002802D01*
X003147Y002847D01*
X003120Y002894D01*
X003097Y002942D01*
X003077Y002992D01*
X003061Y003044D01*
X003048Y003096D01*
X003039Y003149D01*
X003034Y003202D01*
X003032Y003256D01*
X003621Y003452D02*
X003623Y003491D01*
X003629Y003530D01*
X003639Y003568D01*
X003652Y003605D01*
X003669Y003640D01*
X003689Y003674D01*
X003713Y003705D01*
X003740Y003734D01*
X003769Y003760D01*
X003801Y003783D01*
X003835Y003803D01*
X003871Y003819D01*
X003908Y003831D01*
X003947Y003840D01*
X003986Y003845D01*
X004025Y003846D01*
X004064Y003843D01*
X004103Y003836D01*
X004140Y003825D01*
X004177Y003811D01*
X004212Y003793D01*
X004245Y003772D01*
X004276Y003747D01*
X004304Y003720D01*
X004329Y003690D01*
X004351Y003657D01*
X004370Y003623D01*
X004385Y003587D01*
X004397Y003549D01*
X004405Y003511D01*
X004409Y003472D01*
X004409Y003432D01*
X004405Y003393D01*
X004397Y003355D01*
X004385Y003317D01*
X004370Y003281D01*
X004351Y003247D01*
X004329Y003214D01*
X004304Y003184D01*
X004276Y003157D01*
X004245Y003132D01*
X004212Y003111D01*
X004177Y003093D01*
X004140Y003079D01*
X004103Y003068D01*
X004064Y003061D01*
X004025Y003058D01*
X003986Y003059D01*
X003947Y003064D01*
X003908Y003073D01*
X003871Y003085D01*
X003835Y003101D01*
X003801Y003121D01*
X003769Y003144D01*
X003740Y003170D01*
X003713Y003199D01*
X003689Y003230D01*
X003669Y003264D01*
X003652Y003299D01*
X003639Y003336D01*
X003629Y003374D01*
X003623Y003413D01*
X003621Y003452D01*
X011299Y003452D02*
X011301Y003491D01*
X011307Y003530D01*
X011317Y003568D01*
X011330Y003605D01*
X011347Y003640D01*
X011367Y003674D01*
X011391Y003705D01*
X011418Y003734D01*
X011447Y003760D01*
X011479Y003783D01*
X011513Y003803D01*
X011549Y003819D01*
X011586Y003831D01*
X011625Y003840D01*
X011664Y003845D01*
X011703Y003846D01*
X011742Y003843D01*
X011781Y003836D01*
X011818Y003825D01*
X011855Y003811D01*
X011890Y003793D01*
X011923Y003772D01*
X011954Y003747D01*
X011982Y003720D01*
X012007Y003690D01*
X012029Y003657D01*
X012048Y003623D01*
X012063Y003587D01*
X012075Y003549D01*
X012083Y003511D01*
X012087Y003472D01*
X012087Y003432D01*
X012083Y003393D01*
X012075Y003355D01*
X012063Y003317D01*
X012048Y003281D01*
X012029Y003247D01*
X012007Y003214D01*
X011982Y003184D01*
X011954Y003157D01*
X011923Y003132D01*
X011890Y003111D01*
X011855Y003093D01*
X011818Y003079D01*
X011781Y003068D01*
X011742Y003061D01*
X011703Y003058D01*
X011664Y003059D01*
X011625Y003064D01*
X011586Y003073D01*
X011549Y003085D01*
X011513Y003101D01*
X011479Y003121D01*
X011447Y003144D01*
X011418Y003170D01*
X011391Y003199D01*
X011367Y003230D01*
X011347Y003264D01*
X011330Y003299D01*
X011317Y003336D01*
X011307Y003374D01*
X011301Y003413D01*
X011299Y003452D01*
X009842Y020578D02*
X009841Y020633D01*
X009843Y020688D01*
X009849Y020742D01*
X009858Y020796D01*
X009871Y020850D01*
X009887Y020902D01*
X009907Y020954D01*
X009930Y021003D01*
X009956Y021052D01*
X009985Y021098D01*
X010017Y021143D01*
X010052Y021185D01*
X010090Y021225D01*
X010130Y021262D01*
X010173Y021297D01*
X010218Y021328D01*
X010265Y021357D01*
X010313Y021383D01*
X010363Y021405D01*
X010415Y021424D01*
X010468Y021440D01*
X010521Y021452D01*
X010575Y021460D01*
X010630Y021466D01*
D11*
X011313Y020636D03*
X009330Y005161D03*
X008396Y005161D03*
X007509Y005161D03*
X006574Y005161D03*
D12*
X005669Y004216D03*
X010236Y004216D03*
D13*
X010433Y007185D03*
X011220Y007185D03*
X012008Y007185D03*
X009645Y007185D03*
X008858Y007185D03*
X008071Y007185D03*
X007283Y007185D03*
X006496Y007185D03*
X006496Y013248D03*
X007283Y013248D03*
X008071Y013248D03*
X008858Y013248D03*
X009645Y013248D03*
X010433Y013248D03*
X011220Y013248D03*
X012008Y013248D03*
D14*
X010022Y014275D03*
X010022Y015062D03*
X010022Y015850D03*
X010022Y017424D03*
X010022Y018212D03*
X010022Y018999D03*
X003723Y018999D03*
X003723Y018212D03*
X003723Y015062D03*
X003723Y014275D03*
D15*
X004381Y014262D03*
X004803Y013885D03*
X005590Y013885D03*
X006531Y012662D03*
X007281Y012662D03*
X007231Y011312D03*
X006531Y011062D03*
X007081Y009212D03*
X007131Y007962D03*
X008081Y007862D03*
X008149Y008767D03*
X008681Y009662D03*
X008149Y010539D03*
X008431Y011562D03*
X008731Y012462D03*
X009481Y012312D03*
X009731Y011412D03*
X009031Y011062D03*
X010511Y010933D03*
X010481Y010262D03*
X010981Y010562D03*
X011496Y010933D03*
X011631Y011512D03*
X012283Y011720D03*
X012283Y011130D03*
X011681Y009962D03*
X012031Y009462D03*
X012283Y008964D03*
X012283Y008374D03*
X011231Y006612D03*
X010431Y006612D03*
X010118Y006208D03*
X009527Y006208D03*
X009631Y006612D03*
X008937Y006208D03*
X008346Y006208D03*
X007756Y006208D03*
X007165Y006208D03*
X006574Y006208D03*
X008881Y008262D03*
X009931Y008312D03*
X010381Y008112D03*
X010905Y009161D03*
X012283Y006405D03*
X012283Y005815D03*
X012283Y005224D03*
X012283Y004633D03*
X012283Y004043D03*
X010981Y012362D03*
X010331Y013812D03*
X010631Y015812D03*
X010400Y016669D03*
X009731Y016562D03*
X009281Y017762D03*
X008781Y018012D03*
X008543Y019200D03*
X009134Y019200D03*
X009983Y019475D03*
X010383Y019525D03*
X010683Y019825D03*
X010833Y020225D03*
X010718Y020825D03*
X010968Y021125D03*
X011368Y021225D03*
X011718Y021075D03*
X011918Y020725D03*
X011833Y020325D03*
X011783Y019885D03*
X011583Y019494D03*
X011383Y019154D03*
X011118Y018894D03*
X010831Y018262D03*
X010768Y018685D03*
X011681Y017862D03*
X011581Y017062D03*
X011231Y015762D03*
X011581Y015112D03*
X012331Y015512D03*
X011981Y012612D03*
X008231Y013962D03*
X007381Y014012D03*
X006731Y014912D03*
X006381Y015312D03*
X006378Y015854D03*
X005787Y015657D03*
X005197Y015657D03*
X004606Y015657D03*
X004381Y015062D03*
X004015Y015657D03*
X004015Y016641D03*
X004015Y017626D03*
X004331Y018212D03*
X004606Y019200D03*
X005197Y019200D03*
X005787Y019200D03*
X006378Y019200D03*
X006968Y019200D03*
X007559Y019200D03*
X003425Y015657D03*
X003425Y006602D03*
X003425Y006011D03*
D16*
X006496Y007185D02*
X006496Y011027D01*
X006531Y011062D01*
X006531Y012662D02*
X006531Y013213D01*
X006496Y013248D01*
X007281Y013246D02*
X007281Y012662D01*
X007281Y013246D02*
X007283Y013248D01*
X007631Y013762D02*
X007631Y007862D01*
X007531Y007762D01*
X007381Y007762D01*
X007331Y007712D01*
X007331Y007233D01*
X007283Y007185D01*
X007131Y007962D02*
X006931Y007962D01*
X006831Y008062D01*
X006881Y014762D01*
X006731Y014912D01*
X007381Y014012D02*
X007631Y013762D01*
X008231Y013962D02*
X008481Y013712D01*
X008481Y012812D01*
X008581Y012712D01*
X008981Y012712D01*
X009031Y012662D01*
X009031Y011162D01*
X009031Y011062D01*
X009645Y011326D02*
X009731Y011412D01*
X009645Y011326D02*
X009645Y007185D01*
X009645Y006626D01*
X009631Y006612D01*
X008881Y007208D02*
X008858Y007185D01*
X008881Y007208D02*
X008881Y008262D01*
X008081Y007862D02*
X008081Y007196D01*
X008071Y007185D01*
X009931Y008312D02*
X010022Y008403D01*
X010022Y014275D01*
X010331Y013812D02*
X010431Y013712D01*
X010431Y013512D01*
X010431Y013250D01*
X010433Y013248D01*
X010981Y012362D02*
X010981Y010562D01*
X010481Y010262D02*
X010381Y010162D01*
X010381Y008112D01*
X010433Y007185D02*
X010433Y006614D01*
X010431Y006612D01*
X011220Y006623D02*
X011231Y006612D01*
X011220Y006623D02*
X011220Y007185D01*
X011554Y007185D01*
X011631Y007262D01*
X011631Y009912D01*
X011681Y009962D01*
X012031Y009462D02*
X012031Y012012D01*
X012381Y012362D01*
X012381Y015462D01*
X012331Y015512D01*
X011581Y015112D02*
X011631Y015012D01*
X011631Y011512D01*
X011220Y013248D02*
X011231Y013259D01*
X011231Y015762D01*
X010631Y015812D02*
X010594Y015850D01*
X010022Y015850D01*
X010022Y015062D02*
X009431Y015062D01*
X009381Y015012D01*
X009381Y013912D01*
X009645Y013648D01*
X009645Y013248D01*
X009231Y013712D02*
X009081Y013862D01*
X009081Y016412D01*
X009231Y016562D01*
X009731Y016562D01*
X009281Y017762D02*
X009731Y018212D01*
X010022Y018212D01*
X008781Y018012D02*
X008781Y013325D01*
X008858Y013248D01*
X004381Y014262D02*
X004369Y014275D01*
X004119Y014275D01*
X003723Y014275D01*
X003723Y015062D02*
X004381Y015062D01*
X004331Y018212D02*
X003723Y018212D01*
X004331Y018212D02*
X004331Y018212D01*
D17*
X008071Y013248D02*
X008071Y012923D01*
X008331Y012662D01*
X008331Y011662D01*
X008431Y011562D01*
X009231Y012562D02*
X009481Y012312D01*
X009231Y012562D02*
X009231Y013712D01*
D18*
X009571Y014665D02*
X009571Y014672D01*
X010580Y014672D01*
X010662Y014754D01*
X010662Y015370D01*
X010580Y015452D01*
X009464Y015452D01*
X009382Y015370D01*
X009382Y015252D01*
X009352Y015252D01*
X009271Y015171D01*
X009271Y016334D01*
X009310Y016372D01*
X009553Y016372D01*
X009584Y016342D01*
X009679Y016302D01*
X009783Y016302D01*
X009878Y016342D01*
X009952Y016415D01*
X009991Y016510D01*
X009991Y016614D01*
X009952Y016709D01*
X009878Y016783D01*
X009783Y016822D01*
X009679Y016822D01*
X009584Y016783D01*
X009553Y016752D01*
X009152Y016752D01*
X009041Y016641D01*
X008971Y016571D01*
X008971Y017835D01*
X009002Y017865D01*
X009041Y017960D01*
X009041Y018064D01*
X009002Y018159D01*
X008928Y018233D01*
X008833Y018272D01*
X008729Y018272D01*
X008634Y018233D01*
X008561Y018159D01*
X008521Y018064D01*
X008521Y017960D01*
X008561Y017865D01*
X008591Y017835D01*
X008591Y013871D01*
X008491Y013971D01*
X008491Y014014D01*
X008452Y014109D01*
X008378Y014183D01*
X008283Y014222D01*
X008179Y014222D01*
X008084Y014183D01*
X008011Y014109D01*
X007971Y014014D01*
X007971Y013910D01*
X008011Y013815D01*
X008044Y013782D01*
X007821Y013782D01*
X007821Y013841D01*
X007710Y013952D01*
X007641Y014021D01*
X007641Y014064D01*
X007602Y014159D01*
X007528Y014233D01*
X007433Y014272D01*
X007329Y014272D01*
X007234Y014233D01*
X007161Y014159D01*
X007121Y014064D01*
X007121Y013960D01*
X007161Y013865D01*
X007234Y013792D01*
X007258Y013782D01*
X007064Y013782D01*
X007071Y014683D01*
X007071Y014684D01*
X007071Y014762D01*
X007072Y014839D01*
X007071Y014840D01*
X007071Y014841D01*
X007016Y014896D01*
X006991Y014921D01*
X006991Y014964D01*
X006952Y015059D01*
X006878Y015133D01*
X006783Y015172D01*
X006679Y015172D01*
X006601Y015140D01*
X006601Y015165D01*
X006602Y015165D01*
X006641Y015260D01*
X006641Y015364D01*
X006602Y015459D01*
X006528Y015533D01*
X006433Y015572D01*
X006329Y015572D01*
X006234Y015533D01*
X006161Y015459D01*
X006121Y015364D01*
X006121Y015260D01*
X006161Y015165D01*
X006161Y015165D01*
X006161Y014153D01*
X005990Y013982D01*
X005861Y013853D01*
X005861Y013672D01*
X003425Y013672D01*
X003383Y013676D01*
X003306Y013708D01*
X003247Y013767D01*
X003215Y013844D01*
X003211Y013885D01*
X004281Y013885D01*
X004363Y013967D01*
X004363Y014002D01*
X004433Y014002D01*
X004528Y014042D01*
X004602Y014115D01*
X004641Y014210D01*
X004641Y014314D01*
X004602Y014409D01*
X004528Y014483D01*
X004433Y014522D01*
X004363Y014522D01*
X004363Y014583D01*
X004281Y014665D01*
X003211Y014665D01*
X003211Y014672D01*
X004281Y014672D01*
X004363Y014754D01*
X004363Y014802D01*
X004433Y014802D01*
X004528Y014842D01*
X004602Y014915D01*
X004641Y015010D01*
X004641Y015114D01*
X004602Y015209D01*
X004528Y015283D01*
X004433Y015322D01*
X004363Y015322D01*
X004363Y015370D01*
X004281Y015452D01*
X003211Y015452D01*
X003211Y017822D01*
X004281Y017822D01*
X004363Y017904D01*
X004363Y017952D01*
X004383Y017952D01*
X004478Y017992D01*
X004552Y018065D01*
X004591Y018160D01*
X004591Y018264D01*
X004552Y018359D01*
X004478Y018433D01*
X004383Y018472D01*
X004363Y018472D01*
X004363Y018520D01*
X004298Y018585D01*
X004333Y018605D01*
X004367Y018639D01*
X004391Y018680D01*
X004403Y018726D01*
X004403Y018954D01*
X003768Y018954D01*
X003768Y019044D01*
X004403Y019044D01*
X004403Y019273D01*
X004391Y019319D01*
X004367Y019360D01*
X004352Y019375D01*
X009450Y019375D01*
X009382Y019307D01*
X009382Y018691D01*
X009464Y018609D01*
X010580Y018609D01*
X010662Y018691D01*
X010662Y018776D01*
X011023Y018985D01*
X011023Y018985D01*
X011327Y019289D01*
X011542Y019660D01*
X011542Y019660D01*
X011653Y020075D01*
X011653Y020255D01*
X011745Y020347D01*
X011823Y020535D01*
X011823Y020738D01*
X011745Y020925D01*
X011602Y021069D01*
X011414Y021146D01*
X011211Y021146D01*
X011024Y021069D01*
X010880Y020925D01*
X010803Y020738D01*
X010803Y020535D01*
X010880Y020347D01*
X010971Y020257D01*
X010965Y020166D01*
X010900Y019926D01*
X010776Y019711D01*
X010601Y019536D01*
X010386Y019412D01*
X010302Y019389D01*
X009771Y019389D01*
X009921Y019476D01*
X010022Y019651D01*
X010022Y020510D01*
X010026Y020515D01*
X010022Y020584D01*
X010022Y020606D01*
X010024Y020692D01*
X010076Y020892D01*
X010187Y021066D01*
X010346Y021197D01*
X010538Y021272D01*
X010638Y021286D01*
X011881Y021286D01*
X011981Y021272D01*
X012173Y021197D01*
X012332Y021066D01*
X012443Y020892D01*
X012495Y020692D01*
X012497Y020606D01*
X012497Y020584D01*
X012493Y020515D01*
X012497Y020510D01*
X012497Y015714D01*
X012478Y015733D01*
X012383Y015772D01*
X012279Y015772D01*
X012228Y015751D01*
X012228Y017627D01*
X011941Y017913D01*
X011941Y017914D01*
X011902Y018009D01*
X011828Y018083D01*
X011733Y018122D01*
X011629Y018122D01*
X011534Y018083D01*
X011461Y018009D01*
X011421Y017914D01*
X011421Y017810D01*
X011461Y017715D01*
X011534Y017642D01*
X011629Y017602D01*
X011630Y017602D01*
X011788Y017445D01*
X011788Y015274D01*
X011728Y015333D01*
X011633Y015372D01*
X011529Y015372D01*
X011434Y015333D01*
X011421Y015320D01*
X011421Y015585D01*
X011452Y015615D01*
X011491Y015710D01*
X011491Y015814D01*
X011452Y015909D01*
X011378Y015983D01*
X011283Y016022D01*
X011179Y016022D01*
X011084Y015983D01*
X011011Y015909D01*
X010971Y015814D01*
X010971Y015710D01*
X011011Y015615D01*
X011041Y015585D01*
X011041Y013782D01*
X010926Y013782D01*
X010844Y013700D01*
X010844Y012796D01*
X010926Y012714D01*
X011441Y012714D01*
X011441Y011690D01*
X011411Y011659D01*
X011371Y011564D01*
X011371Y011460D01*
X011411Y011365D01*
X011484Y011292D01*
X011579Y011252D01*
X011683Y011252D01*
X011778Y011292D01*
X011841Y011355D01*
X011841Y010170D01*
X011828Y010183D01*
X011733Y010222D01*
X011629Y010222D01*
X011534Y010183D01*
X011461Y010109D01*
X011421Y010014D01*
X011421Y009910D01*
X011441Y009862D01*
X011441Y007719D01*
X010926Y007719D01*
X010844Y007637D01*
X010844Y006733D01*
X010926Y006651D01*
X010971Y006651D01*
X010971Y006560D01*
X011011Y006465D01*
X011084Y006392D01*
X011179Y006352D01*
X011283Y006352D01*
X011378Y006392D01*
X011452Y006465D01*
X011491Y006560D01*
X011491Y006651D01*
X011514Y006651D01*
X011596Y006733D01*
X011596Y006749D01*
X011604Y006722D01*
X011627Y006681D01*
X011661Y006647D01*
X011702Y006624D01*
X011748Y006611D01*
X011969Y006611D01*
X011969Y007147D01*
X011785Y007147D01*
X011821Y007184D01*
X011821Y007223D01*
X011969Y007223D01*
X011969Y007147D01*
X012046Y007147D01*
X012046Y007223D01*
X012424Y007223D01*
X012424Y007602D01*
X012411Y007648D01*
X012388Y007689D01*
X012354Y007723D01*
X012313Y007746D01*
X012267Y007759D01*
X012046Y007759D01*
X012046Y007223D01*
X011969Y007223D01*
X011969Y007759D01*
X011821Y007759D01*
X011821Y009305D01*
X011884Y009242D01*
X011979Y009202D01*
X012083Y009202D01*
X012178Y009242D01*
X012252Y009315D01*
X012291Y009410D01*
X012291Y009514D01*
X012252Y009609D01*
X012221Y009640D01*
X012221Y011934D01*
X012460Y012172D01*
X012497Y012209D01*
X012497Y003256D01*
X012489Y003160D01*
X012431Y002980D01*
X012319Y002826D01*
X012165Y002714D01*
X011984Y002656D01*
X011889Y002648D01*
X003819Y002648D01*
X003724Y002656D01*
X003543Y002714D01*
X003389Y002826D01*
X003277Y002980D01*
X003219Y003160D01*
X003211Y003256D01*
X003211Y006602D01*
X003215Y006644D01*
X003247Y006721D01*
X003306Y006780D01*
X003383Y006812D01*
X003425Y006816D01*
X005861Y006816D01*
X005861Y005563D01*
X006093Y005331D01*
X006064Y005262D01*
X006064Y005060D01*
X006142Y004872D01*
X006286Y004729D01*
X006473Y004651D01*
X006676Y004651D01*
X006863Y004729D01*
X007007Y004872D01*
X007042Y004956D01*
X007076Y004872D01*
X007220Y004729D01*
X007407Y004651D01*
X007610Y004651D01*
X007798Y004729D01*
X007941Y004872D01*
X007952Y004900D01*
X007964Y004872D01*
X008107Y004729D01*
X008295Y004651D01*
X008498Y004651D01*
X008685Y004729D01*
X008828Y004872D01*
X008843Y004907D01*
X008860Y004873D01*
X008911Y004803D01*
X008972Y004742D01*
X009042Y004691D01*
X009119Y004651D01*
X009202Y004625D01*
X009287Y004611D01*
X009320Y004611D01*
X009320Y005151D01*
X009340Y005151D01*
X009340Y004611D01*
X009374Y004611D01*
X009459Y004625D01*
X009542Y004651D01*
X009619Y004691D01*
X009689Y004742D01*
X009750Y004803D01*
X009801Y004873D01*
X009840Y004950D01*
X009867Y005032D01*
X009880Y005118D01*
X009880Y005151D01*
X009340Y005151D01*
X009340Y005171D01*
X009320Y005171D01*
X009320Y005711D01*
X009287Y005711D01*
X009202Y005697D01*
X009119Y005671D01*
X009042Y005631D01*
X008972Y005581D01*
X008911Y005519D01*
X008860Y005449D01*
X008843Y005415D01*
X008828Y005450D01*
X008685Y005593D01*
X008498Y005671D01*
X008295Y005671D01*
X008107Y005593D01*
X007964Y005450D01*
X007952Y005423D01*
X007941Y005450D01*
X007798Y005593D01*
X007610Y005671D01*
X007407Y005671D01*
X007220Y005593D01*
X007076Y005450D01*
X007042Y005366D01*
X007007Y005450D01*
X006863Y005593D01*
X006676Y005671D01*
X006473Y005671D01*
X006404Y005642D01*
X006301Y005745D01*
X006301Y006651D01*
X006790Y006651D01*
X006872Y006733D01*
X006872Y007637D01*
X006790Y007719D01*
X006686Y007719D01*
X006686Y007939D01*
X006696Y007928D01*
X006751Y007873D01*
X006752Y007873D01*
X006852Y007772D01*
X006953Y007772D01*
X006984Y007742D01*
X007040Y007719D01*
X006989Y007719D01*
X006907Y007637D01*
X006907Y006733D01*
X006989Y006651D01*
X007577Y006651D01*
X007659Y006733D01*
X007659Y007622D01*
X007721Y007684D01*
X007821Y007784D01*
X007821Y012714D01*
X008024Y012714D01*
X008151Y012588D01*
X008151Y011588D01*
X008171Y011568D01*
X008171Y011510D01*
X008211Y011415D01*
X008284Y011342D01*
X008379Y011302D01*
X008483Y011302D01*
X008511Y011314D01*
X008511Y009860D01*
X008461Y009809D01*
X008421Y009714D01*
X008421Y009610D01*
X008461Y009515D01*
X008534Y009442D01*
X008629Y009402D01*
X008733Y009402D01*
X008828Y009442D01*
X008902Y009515D01*
X008941Y009610D01*
X008941Y009611D01*
X008951Y009621D01*
X008951Y010814D01*
X008979Y010802D01*
X009083Y010802D01*
X009178Y010842D01*
X009252Y010915D01*
X009291Y011010D01*
X009291Y011114D01*
X009252Y011209D01*
X009221Y011240D01*
X009221Y012318D01*
X009221Y012318D01*
X009221Y012260D01*
X009261Y012165D01*
X009334Y012092D01*
X009429Y012052D01*
X009533Y012052D01*
X009628Y012092D01*
X009702Y012165D01*
X009741Y012260D01*
X009741Y012364D01*
X009702Y012459D01*
X009628Y012533D01*
X009533Y012572D01*
X009476Y012572D01*
X009411Y012637D01*
X009411Y012714D01*
X009832Y012714D01*
X009832Y011652D01*
X009783Y011672D01*
X009679Y011672D01*
X009584Y011633D01*
X009511Y011559D01*
X009471Y011464D01*
X009471Y011421D01*
X009455Y011405D01*
X009455Y007719D01*
X009351Y007719D01*
X009269Y007637D01*
X009269Y006733D01*
X009351Y006651D01*
X009371Y006651D01*
X009371Y006560D01*
X009411Y006465D01*
X009484Y006392D01*
X009579Y006352D01*
X009683Y006352D01*
X009778Y006392D01*
X009852Y006465D01*
X009891Y006560D01*
X009891Y006651D01*
X009940Y006651D01*
X010022Y006733D01*
X010022Y007637D01*
X009940Y007719D01*
X009835Y007719D01*
X009835Y008070D01*
X009879Y008052D01*
X009983Y008052D01*
X010078Y008092D01*
X010121Y008135D01*
X010121Y008060D01*
X010161Y007965D01*
X010234Y007892D01*
X010329Y007852D01*
X010433Y007852D01*
X010528Y007892D01*
X010602Y007965D01*
X010641Y008060D01*
X010641Y008164D01*
X010602Y008259D01*
X010571Y008290D01*
X010571Y010018D01*
X010628Y010042D01*
X010702Y010115D01*
X010741Y010210D01*
X010741Y010314D01*
X010702Y010409D01*
X010628Y010483D01*
X010533Y010522D01*
X010429Y010522D01*
X010334Y010483D01*
X010261Y010409D01*
X010221Y010314D01*
X010221Y010271D01*
X010212Y010262D01*
X010212Y012714D01*
X010727Y012714D01*
X010809Y012796D01*
X010809Y013700D01*
X010727Y013782D01*
X010621Y013782D01*
X010621Y013791D01*
X010591Y013821D01*
X010591Y013864D01*
X010582Y013887D01*
X010662Y013967D01*
X010662Y014583D01*
X010580Y014665D01*
X009571Y014665D01*
X009345Y015245D02*
X009271Y015245D01*
X009271Y015404D02*
X009416Y015404D01*
X009464Y015460D02*
X009382Y015542D01*
X009382Y016158D01*
X009464Y016240D01*
X010580Y016240D01*
X010662Y016158D01*
X010662Y016072D01*
X010683Y016072D01*
X010778Y016033D01*
X010852Y015959D01*
X010891Y015864D01*
X010891Y015760D01*
X010852Y015665D01*
X010778Y015592D01*
X010683Y015552D01*
X010662Y015552D01*
X010662Y015542D01*
X010580Y015460D01*
X009464Y015460D01*
X009382Y015562D02*
X009271Y015562D01*
X009271Y015721D02*
X009382Y015721D01*
X009382Y015879D02*
X009271Y015879D01*
X009271Y016038D02*
X009382Y016038D01*
X009421Y016196D02*
X009271Y016196D01*
X009292Y016355D02*
X009571Y016355D01*
X009891Y016355D02*
X011788Y016355D01*
X011788Y016513D02*
X009991Y016513D01*
X009967Y016672D02*
X011788Y016672D01*
X011788Y016830D02*
X008971Y016830D01*
X008971Y016672D02*
X009072Y016672D01*
X008971Y016989D02*
X011788Y016989D01*
X011788Y017147D02*
X010701Y017147D01*
X010702Y017151D02*
X010702Y017379D01*
X010067Y017379D01*
X010067Y016994D01*
X010546Y016994D01*
X010592Y017007D01*
X010633Y017030D01*
X010666Y017064D01*
X010690Y017105D01*
X010702Y017151D01*
X010702Y017306D02*
X011788Y017306D01*
X011768Y017464D02*
X010067Y017464D01*
X010067Y017469D02*
X010702Y017469D01*
X010702Y017698D01*
X010690Y017744D01*
X010666Y017785D01*
X010633Y017818D01*
X010597Y017839D01*
X010662Y017904D01*
X010662Y018042D01*
X010683Y018042D01*
X010684Y018042D01*
X010779Y018002D01*
X010883Y018002D01*
X010978Y018042D01*
X011052Y018115D01*
X011091Y018210D01*
X011091Y018314D01*
X011052Y018409D01*
X010978Y018483D01*
X010883Y018522D01*
X010779Y018522D01*
X010684Y018483D01*
X010683Y018482D01*
X010662Y018482D01*
X010662Y018520D01*
X010580Y018602D01*
X009464Y018602D01*
X009382Y018520D01*
X009382Y018132D01*
X009272Y018022D01*
X009229Y018022D01*
X009134Y017983D01*
X009061Y017909D01*
X009021Y017814D01*
X009021Y017710D01*
X009061Y017615D01*
X009134Y017542D01*
X009229Y017502D01*
X009333Y017502D01*
X009342Y017506D01*
X009342Y017469D01*
X009977Y017469D01*
X009977Y017379D01*
X010067Y017379D01*
X010067Y017469D01*
X009977Y017464D02*
X008971Y017464D01*
X008971Y017306D02*
X009342Y017306D01*
X009342Y017379D02*
X009342Y017151D01*
X009354Y017105D01*
X009378Y017064D01*
X009412Y017030D01*
X009453Y017007D01*
X009498Y016994D01*
X009977Y016994D01*
X009977Y017379D01*
X009342Y017379D01*
X009343Y017147D02*
X008971Y017147D01*
X008591Y017147D02*
X003211Y017147D01*
X003211Y016989D02*
X008591Y016989D01*
X008591Y016830D02*
X003211Y016830D01*
X003211Y016672D02*
X008591Y016672D01*
X008591Y016513D02*
X003211Y016513D01*
X003211Y016355D02*
X008591Y016355D01*
X008591Y016196D02*
X003211Y016196D01*
X003211Y016038D02*
X008591Y016038D01*
X008591Y015879D02*
X003211Y015879D01*
X003211Y015721D02*
X008591Y015721D01*
X008591Y015562D02*
X006457Y015562D01*
X006305Y015562D02*
X003211Y015562D01*
X003226Y013819D02*
X005861Y013819D01*
X005985Y013977D02*
X004363Y013977D01*
X004610Y014136D02*
X006144Y014136D01*
X006161Y014294D02*
X004641Y014294D01*
X004558Y014453D02*
X006161Y014453D01*
X006161Y014611D02*
X004334Y014611D01*
X004363Y014770D02*
X006161Y014770D01*
X006161Y014928D02*
X004607Y014928D01*
X004641Y015087D02*
X006161Y015087D01*
X006127Y015245D02*
X004566Y015245D01*
X004329Y015404D02*
X006138Y015404D01*
X006381Y015312D02*
X006381Y014062D01*
X006081Y013762D01*
X006081Y011612D01*
X006231Y011412D01*
X006231Y007912D01*
X006081Y007712D01*
X006081Y005654D01*
X006574Y005161D01*
X006919Y004784D02*
X007164Y004784D01*
X007047Y004943D02*
X007036Y004943D01*
X007020Y005418D02*
X007063Y005418D01*
X007203Y005577D02*
X006880Y005577D01*
X006311Y005735D02*
X012497Y005735D01*
X012497Y005577D02*
X009693Y005577D01*
X009689Y005581D02*
X009619Y005631D01*
X009542Y005671D01*
X009459Y005697D01*
X009374Y005711D01*
X009340Y005711D01*
X009340Y005171D01*
X009880Y005171D01*
X009880Y005204D01*
X009867Y005290D01*
X009840Y005372D01*
X009801Y005449D01*
X009750Y005519D01*
X009689Y005581D01*
X009817Y005418D02*
X012497Y005418D01*
X012497Y005260D02*
X009872Y005260D01*
X009878Y005101D02*
X012497Y005101D01*
X012497Y004943D02*
X009836Y004943D01*
X009731Y004784D02*
X012497Y004784D01*
X012497Y004626D02*
X010553Y004626D01*
X010527Y004652D02*
X010672Y004507D01*
X010750Y004318D01*
X010750Y004114D01*
X010672Y003925D01*
X010527Y003780D01*
X010338Y003702D01*
X010134Y003702D01*
X009945Y003780D01*
X009800Y003925D01*
X009722Y004114D01*
X009722Y004318D01*
X009800Y004507D01*
X009945Y004652D01*
X010134Y004730D01*
X010338Y004730D01*
X010527Y004652D01*
X010688Y004467D02*
X012497Y004467D01*
X012497Y004309D02*
X010750Y004309D01*
X010750Y004150D02*
X012497Y004150D01*
X012497Y003992D02*
X011890Y003992D01*
X011807Y004026D02*
X011578Y004026D01*
X011368Y003939D01*
X011206Y003777D01*
X011119Y003566D01*
X011119Y003338D01*
X011206Y003127D01*
X011368Y002966D01*
X011578Y002879D01*
X011807Y002879D01*
X012018Y002966D01*
X012179Y003127D01*
X012266Y003338D01*
X012266Y003566D01*
X012179Y003777D01*
X012018Y003939D01*
X011807Y004026D01*
X011496Y003992D02*
X010699Y003992D01*
X010580Y003833D02*
X011262Y003833D01*
X011164Y003675D02*
X004544Y003675D01*
X004502Y003777D02*
X004589Y003566D01*
X004589Y003338D01*
X004502Y003127D01*
X004340Y002966D01*
X004130Y002879D01*
X003901Y002879D01*
X003690Y002966D01*
X003529Y003127D01*
X003442Y003338D01*
X003442Y003566D01*
X003529Y003777D01*
X003690Y003939D01*
X003901Y004026D01*
X004130Y004026D01*
X004340Y003939D01*
X004502Y003777D01*
X004446Y003833D02*
X005325Y003833D01*
X005378Y003780D02*
X005567Y003702D01*
X005771Y003702D01*
X005960Y003780D01*
X006105Y003925D01*
X006183Y004114D01*
X006183Y004318D01*
X006105Y004507D01*
X005960Y004652D01*
X005771Y004730D01*
X005567Y004730D01*
X005378Y004652D01*
X005233Y004507D01*
X005155Y004318D01*
X005155Y004114D01*
X005233Y003925D01*
X005378Y003780D01*
X005206Y003992D02*
X004212Y003992D01*
X003818Y003992D02*
X003211Y003992D01*
X003211Y004150D02*
X005155Y004150D01*
X005155Y004309D02*
X003211Y004309D01*
X003211Y004467D02*
X005217Y004467D01*
X005352Y004626D02*
X003211Y004626D01*
X003211Y004784D02*
X006230Y004784D01*
X006113Y004943D02*
X003211Y004943D01*
X003211Y005101D02*
X006064Y005101D01*
X006064Y005260D02*
X003211Y005260D01*
X003211Y005418D02*
X006006Y005418D01*
X005861Y005577D02*
X003211Y005577D01*
X003211Y005735D02*
X005861Y005735D01*
X005861Y005894D02*
X003211Y005894D01*
X003211Y006052D02*
X005861Y006052D01*
X005861Y006211D02*
X003211Y006211D01*
X003211Y006369D02*
X005861Y006369D01*
X005861Y006528D02*
X003211Y006528D01*
X003233Y006686D02*
X005861Y006686D01*
X006301Y006528D02*
X009385Y006528D01*
X009316Y006686D02*
X009187Y006686D01*
X009152Y006651D02*
X009234Y006733D01*
X009234Y007637D01*
X009152Y007719D01*
X009071Y007719D01*
X009071Y008085D01*
X009102Y008115D01*
X009141Y008210D01*
X009141Y008314D01*
X009102Y008409D01*
X009028Y008483D01*
X008933Y008522D01*
X008829Y008522D01*
X008734Y008483D01*
X008661Y008409D01*
X008621Y008314D01*
X008621Y008210D01*
X008661Y008115D01*
X008691Y008085D01*
X008691Y007719D01*
X008564Y007719D01*
X008482Y007637D01*
X008446Y007637D01*
X008447Y007637D02*
X008365Y007719D01*
X008303Y007719D01*
X008341Y007810D01*
X008341Y007914D01*
X008302Y008009D01*
X008228Y008083D01*
X008133Y008122D01*
X008029Y008122D01*
X007934Y008083D01*
X007861Y008009D01*
X007821Y007914D01*
X007821Y007810D01*
X007859Y007719D01*
X007776Y007719D01*
X007694Y007637D01*
X007694Y006733D01*
X007776Y006651D01*
X008365Y006651D01*
X008447Y006733D01*
X008447Y007637D01*
X008482Y007637D02*
X008482Y006733D01*
X008564Y006651D01*
X009152Y006651D01*
X009234Y006845D02*
X009269Y006845D01*
X009269Y007003D02*
X009234Y007003D01*
X009234Y007162D02*
X009269Y007162D01*
X009269Y007320D02*
X009234Y007320D01*
X009234Y007479D02*
X009269Y007479D01*
X009270Y007637D02*
X009234Y007637D01*
X009071Y007796D02*
X009455Y007796D01*
X009455Y007954D02*
X009071Y007954D01*
X009099Y008113D02*
X009455Y008113D01*
X009455Y008271D02*
X009141Y008271D01*
X009081Y008430D02*
X009455Y008430D01*
X009455Y008588D02*
X007821Y008588D01*
X007821Y008430D02*
X008681Y008430D01*
X008621Y008271D02*
X007821Y008271D01*
X007821Y008113D02*
X008007Y008113D01*
X008156Y008113D02*
X008663Y008113D01*
X008691Y007954D02*
X008324Y007954D01*
X008335Y007796D02*
X008691Y007796D01*
X008482Y007479D02*
X008447Y007479D01*
X008447Y007320D02*
X008482Y007320D01*
X008482Y007162D02*
X008447Y007162D01*
X008447Y007003D02*
X008482Y007003D01*
X008482Y006845D02*
X008447Y006845D01*
X008400Y006686D02*
X008529Y006686D01*
X008702Y005577D02*
X008968Y005577D01*
X008844Y005418D02*
X008842Y005418D01*
X008929Y004784D02*
X008741Y004784D01*
X009198Y004626D02*
X005986Y004626D01*
X006121Y004467D02*
X009784Y004467D01*
X009722Y004309D02*
X006183Y004309D01*
X006183Y004150D02*
X009722Y004150D01*
X009772Y003992D02*
X006132Y003992D01*
X006013Y003833D02*
X009892Y003833D01*
X009919Y004626D02*
X009463Y004626D01*
X009340Y004626D02*
X009320Y004626D01*
X009320Y004784D02*
X009340Y004784D01*
X009340Y004943D02*
X009320Y004943D01*
X009320Y005101D02*
X009340Y005101D01*
X009340Y005260D02*
X009320Y005260D01*
X009320Y005418D02*
X009340Y005418D01*
X009340Y005577D02*
X009320Y005577D01*
X009538Y006369D02*
X006301Y006369D01*
X006301Y006211D02*
X012497Y006211D01*
X012497Y006369D02*
X011324Y006369D01*
X011478Y006528D02*
X012497Y006528D01*
X012497Y006686D02*
X012391Y006686D01*
X012388Y006681D02*
X012411Y006722D01*
X012424Y006768D01*
X012424Y007147D01*
X012046Y007147D01*
X012046Y006611D01*
X012267Y006611D01*
X012313Y006624D01*
X012354Y006647D01*
X012388Y006681D01*
X012424Y006845D02*
X012497Y006845D01*
X012497Y007003D02*
X012424Y007003D01*
X012497Y007162D02*
X012046Y007162D01*
X011969Y007162D02*
X011799Y007162D01*
X011969Y007320D02*
X012046Y007320D01*
X012046Y007479D02*
X011969Y007479D01*
X011969Y007637D02*
X012046Y007637D01*
X011821Y007796D02*
X012497Y007796D01*
X012497Y007954D02*
X011821Y007954D01*
X011821Y008113D02*
X012497Y008113D01*
X012497Y008271D02*
X011821Y008271D01*
X011821Y008430D02*
X012497Y008430D01*
X012497Y008588D02*
X011821Y008588D01*
X011821Y008747D02*
X012497Y008747D01*
X012497Y008905D02*
X011821Y008905D01*
X011821Y009064D02*
X012497Y009064D01*
X012497Y009222D02*
X012131Y009222D01*
X012279Y009381D02*
X012497Y009381D01*
X012497Y009539D02*
X012281Y009539D01*
X012221Y009698D02*
X012497Y009698D01*
X012497Y009856D02*
X012221Y009856D01*
X012221Y010015D02*
X012497Y010015D01*
X012497Y010173D02*
X012221Y010173D01*
X012221Y010332D02*
X012497Y010332D01*
X012497Y010490D02*
X012221Y010490D01*
X012221Y010649D02*
X012497Y010649D01*
X012497Y010807D02*
X012221Y010807D01*
X012221Y010966D02*
X012497Y010966D01*
X012497Y011124D02*
X012221Y011124D01*
X012221Y011283D02*
X012497Y011283D01*
X012497Y011441D02*
X012221Y011441D01*
X012221Y011600D02*
X012497Y011600D01*
X012497Y011758D02*
X012221Y011758D01*
X012221Y011917D02*
X012497Y011917D01*
X012497Y012075D02*
X012363Y012075D01*
X011981Y012612D02*
X011981Y013222D01*
X012008Y013248D01*
X012008Y017536D01*
X011681Y017862D01*
X011580Y017623D02*
X010702Y017623D01*
X010668Y017781D02*
X011433Y017781D01*
X011432Y017940D02*
X010662Y017940D01*
X010831Y018262D02*
X010073Y018262D01*
X010022Y018212D01*
X009436Y018574D02*
X004309Y018574D01*
X004403Y018732D02*
X009382Y018732D01*
X009382Y018891D02*
X004403Y018891D01*
X004403Y019049D02*
X009382Y019049D01*
X009382Y019208D02*
X004403Y019208D01*
X004360Y019366D02*
X009441Y019366D01*
X009921Y019476D02*
X009921Y019476D01*
X009921Y019476D01*
X009950Y019525D02*
X010582Y019525D01*
X010748Y019683D02*
X010022Y019683D01*
X010022Y019842D02*
X010852Y019842D01*
X010920Y020000D02*
X010022Y020000D01*
X010022Y020159D02*
X010963Y020159D01*
X010910Y020317D02*
X010022Y020317D01*
X010022Y020476D02*
X010827Y020476D01*
X010803Y020634D02*
X010023Y020634D01*
X010050Y020793D02*
X010825Y020793D01*
X010906Y020951D02*
X010114Y020951D01*
X010240Y021110D02*
X011123Y021110D01*
X011502Y021110D02*
X012279Y021110D01*
X012405Y020951D02*
X011719Y020951D01*
X011800Y020793D02*
X012469Y020793D01*
X012496Y020634D02*
X011823Y020634D01*
X011798Y020476D02*
X012497Y020476D01*
X012497Y020317D02*
X011715Y020317D01*
X011653Y020159D02*
X012497Y020159D01*
X012497Y020000D02*
X011633Y020000D01*
X011590Y019842D02*
X012497Y019842D01*
X012497Y019683D02*
X011548Y019683D01*
X011463Y019525D02*
X012497Y019525D01*
X012497Y019366D02*
X011372Y019366D01*
X011327Y019289D02*
X011327Y019289D01*
X011327Y019289D01*
X011246Y019208D02*
X012497Y019208D01*
X012497Y019049D02*
X011088Y019049D01*
X010860Y018891D02*
X012497Y018891D01*
X012497Y018732D02*
X010662Y018732D01*
X010608Y018574D02*
X012497Y018574D01*
X012497Y018415D02*
X011046Y018415D01*
X011091Y018257D02*
X012497Y018257D01*
X012497Y018098D02*
X011791Y018098D01*
X011930Y017940D02*
X012497Y017940D01*
X012497Y017781D02*
X012073Y017781D01*
X012228Y017623D02*
X012497Y017623D01*
X012497Y017464D02*
X012228Y017464D01*
X012228Y017306D02*
X012497Y017306D01*
X012497Y017147D02*
X012228Y017147D01*
X012228Y016989D02*
X012497Y016989D01*
X012497Y016830D02*
X012228Y016830D01*
X012228Y016672D02*
X012497Y016672D01*
X012497Y016513D02*
X012228Y016513D01*
X012228Y016355D02*
X012497Y016355D01*
X012497Y016196D02*
X012228Y016196D01*
X012228Y016038D02*
X012497Y016038D01*
X012497Y015879D02*
X012228Y015879D01*
X012490Y015721D02*
X012497Y015721D01*
X011788Y015721D02*
X011491Y015721D01*
X011464Y015879D02*
X011788Y015879D01*
X011788Y016038D02*
X010766Y016038D01*
X010885Y015879D02*
X010998Y015879D01*
X010971Y015721D02*
X010875Y015721D01*
X011041Y015562D02*
X010707Y015562D01*
X010629Y015404D02*
X011041Y015404D01*
X011041Y015245D02*
X010662Y015245D01*
X010662Y015087D02*
X011041Y015087D01*
X011041Y014928D02*
X010662Y014928D01*
X010662Y014770D02*
X011041Y014770D01*
X011041Y014611D02*
X010634Y014611D01*
X010662Y014453D02*
X011041Y014453D01*
X011041Y014294D02*
X010662Y014294D01*
X010662Y014136D02*
X011041Y014136D01*
X011041Y013977D02*
X010662Y013977D01*
X010593Y013819D02*
X011041Y013819D01*
X010844Y013660D02*
X010809Y013660D01*
X010809Y013502D02*
X010844Y013502D01*
X010844Y013343D02*
X010809Y013343D01*
X010809Y013185D02*
X010844Y013185D01*
X010844Y013026D02*
X010809Y013026D01*
X010809Y012868D02*
X010844Y012868D01*
X010929Y012622D02*
X010834Y012583D01*
X010761Y012509D01*
X010721Y012414D01*
X010721Y012310D01*
X010761Y012215D01*
X010791Y012185D01*
X010791Y010740D01*
X010761Y010709D01*
X010721Y010614D01*
X010721Y010510D01*
X010761Y010415D01*
X010834Y010342D01*
X010929Y010302D01*
X011033Y010302D01*
X011128Y010342D01*
X011202Y010415D01*
X011241Y010510D01*
X011241Y010614D01*
X011202Y010709D01*
X011171Y010740D01*
X011171Y012185D01*
X011202Y012215D01*
X011241Y012310D01*
X011241Y012414D01*
X011202Y012509D01*
X011128Y012583D01*
X011033Y012622D01*
X010929Y012622D01*
X010802Y012551D02*
X010212Y012551D01*
X010212Y012709D02*
X011441Y012709D01*
X011441Y012551D02*
X011160Y012551D01*
X011241Y012392D02*
X011441Y012392D01*
X011441Y012234D02*
X011209Y012234D01*
X011171Y012075D02*
X011441Y012075D01*
X011441Y011917D02*
X011171Y011917D01*
X011171Y011758D02*
X011441Y011758D01*
X011386Y011600D02*
X011171Y011600D01*
X011171Y011441D02*
X011379Y011441D01*
X011506Y011283D02*
X011171Y011283D01*
X011171Y011124D02*
X011841Y011124D01*
X011841Y010966D02*
X011171Y010966D01*
X011171Y010807D02*
X011841Y010807D01*
X011841Y010649D02*
X011227Y010649D01*
X011233Y010490D02*
X011841Y010490D01*
X011841Y010332D02*
X011104Y010332D01*
X010858Y010332D02*
X010734Y010332D01*
X010730Y010490D02*
X010610Y010490D01*
X010736Y010649D02*
X010212Y010649D01*
X010212Y010807D02*
X010791Y010807D01*
X010791Y010966D02*
X010212Y010966D01*
X010212Y011124D02*
X010791Y011124D01*
X010791Y011283D02*
X010212Y011283D01*
X010212Y011441D02*
X010791Y011441D01*
X010791Y011600D02*
X010212Y011600D01*
X010212Y011758D02*
X010791Y011758D01*
X010791Y011917D02*
X010212Y011917D01*
X010212Y012075D02*
X010791Y012075D01*
X010753Y012234D02*
X010212Y012234D01*
X010212Y012392D02*
X010721Y012392D01*
X009832Y012392D02*
X009729Y012392D01*
X009730Y012234D02*
X009832Y012234D01*
X009832Y012075D02*
X009588Y012075D01*
X009374Y012075D02*
X009221Y012075D01*
X009221Y011917D02*
X009832Y011917D01*
X009832Y011758D02*
X009221Y011758D01*
X009221Y011600D02*
X009551Y011600D01*
X009471Y011441D02*
X009221Y011441D01*
X009221Y011283D02*
X009455Y011283D01*
X009455Y011124D02*
X009287Y011124D01*
X009273Y010966D02*
X009455Y010966D01*
X009455Y010807D02*
X009095Y010807D01*
X008967Y010807D02*
X008951Y010807D01*
X008951Y010649D02*
X009455Y010649D01*
X009455Y010490D02*
X008951Y010490D01*
X008951Y010332D02*
X009455Y010332D01*
X009455Y010173D02*
X008951Y010173D01*
X008951Y010015D02*
X009455Y010015D01*
X009455Y009856D02*
X008951Y009856D01*
X008951Y009698D02*
X009455Y009698D01*
X009455Y009539D02*
X008912Y009539D01*
X008731Y009712D02*
X008681Y009662D01*
X008731Y009712D02*
X008731Y012462D01*
X009221Y012234D02*
X009232Y012234D01*
X009411Y012709D02*
X009832Y012709D01*
X009832Y012551D02*
X009585Y012551D01*
X008511Y011283D02*
X007821Y011283D01*
X007821Y011441D02*
X008200Y011441D01*
X008151Y011600D02*
X007821Y011600D01*
X007821Y011758D02*
X008151Y011758D01*
X008151Y011917D02*
X007821Y011917D01*
X007821Y012075D02*
X008151Y012075D01*
X008151Y012234D02*
X007821Y012234D01*
X007821Y012392D02*
X008151Y012392D01*
X008151Y012551D02*
X007821Y012551D01*
X007821Y012709D02*
X008030Y012709D01*
X007441Y012455D02*
X007441Y007952D01*
X007391Y007952D01*
X007391Y008014D01*
X007352Y008109D01*
X007278Y008183D01*
X007183Y008222D01*
X007079Y008222D01*
X007022Y008198D01*
X007055Y012530D01*
X007061Y012515D01*
X007134Y012442D01*
X007229Y012402D01*
X007333Y012402D01*
X007428Y012442D01*
X007441Y012455D01*
X007441Y012392D02*
X007053Y012392D01*
X007052Y012234D02*
X007441Y012234D01*
X007441Y012075D02*
X007051Y012075D01*
X007050Y011917D02*
X007441Y011917D01*
X007441Y011758D02*
X007049Y011758D01*
X007048Y011600D02*
X007441Y011600D01*
X007441Y011441D02*
X007046Y011441D01*
X007045Y011283D02*
X007441Y011283D01*
X007441Y011124D02*
X007044Y011124D01*
X007043Y010966D02*
X007441Y010966D01*
X007441Y010807D02*
X007042Y010807D01*
X007040Y010649D02*
X007441Y010649D01*
X007441Y010490D02*
X007039Y010490D01*
X007038Y010332D02*
X007441Y010332D01*
X007441Y010173D02*
X007037Y010173D01*
X007036Y010015D02*
X007441Y010015D01*
X007441Y009856D02*
X007035Y009856D01*
X007033Y009698D02*
X007441Y009698D01*
X007441Y009539D02*
X007032Y009539D01*
X007031Y009381D02*
X007441Y009381D01*
X007441Y009222D02*
X007030Y009222D01*
X007029Y009064D02*
X007441Y009064D01*
X007441Y008905D02*
X007027Y008905D01*
X007026Y008747D02*
X007441Y008747D01*
X007441Y008588D02*
X007025Y008588D01*
X007024Y008430D02*
X007441Y008430D01*
X007441Y008271D02*
X007023Y008271D01*
X007348Y008113D02*
X007441Y008113D01*
X007441Y007954D02*
X007391Y007954D01*
X007675Y007637D02*
X007695Y007637D01*
X007694Y007479D02*
X007659Y007479D01*
X007659Y007320D02*
X007694Y007320D01*
X007694Y007162D02*
X007659Y007162D01*
X007659Y007003D02*
X007694Y007003D01*
X007694Y006845D02*
X007659Y006845D01*
X007612Y006686D02*
X007741Y006686D01*
X007814Y005577D02*
X008091Y005577D01*
X008052Y004784D02*
X007853Y004784D01*
X006954Y006686D02*
X006825Y006686D01*
X006872Y006845D02*
X006907Y006845D01*
X006907Y007003D02*
X006872Y007003D01*
X006872Y007162D02*
X006907Y007162D01*
X006907Y007320D02*
X006872Y007320D01*
X006872Y007479D02*
X006907Y007479D01*
X006907Y007637D02*
X006871Y007637D01*
X006829Y007796D02*
X006686Y007796D01*
X006301Y006052D02*
X012497Y006052D01*
X012497Y005894D02*
X006301Y005894D01*
X007821Y007796D02*
X007827Y007796D01*
X007821Y007954D02*
X007838Y007954D01*
X007821Y008747D02*
X009455Y008747D01*
X009455Y008905D02*
X007821Y008905D01*
X007821Y009064D02*
X009455Y009064D01*
X009455Y009222D02*
X007821Y009222D01*
X007821Y009381D02*
X009455Y009381D01*
X010212Y010332D02*
X010229Y010332D01*
X010212Y010490D02*
X010352Y010490D01*
X010571Y010015D02*
X011421Y010015D01*
X011441Y009856D02*
X010571Y009856D01*
X010571Y009698D02*
X011441Y009698D01*
X011441Y009539D02*
X010571Y009539D01*
X010571Y009381D02*
X011441Y009381D01*
X011441Y009222D02*
X010571Y009222D01*
X010571Y009064D02*
X011441Y009064D01*
X011441Y008905D02*
X010571Y008905D01*
X010571Y008747D02*
X011441Y008747D01*
X011441Y008588D02*
X010571Y008588D01*
X010571Y008430D02*
X011441Y008430D01*
X011441Y008271D02*
X010590Y008271D01*
X010641Y008113D02*
X011441Y008113D01*
X011441Y007954D02*
X010591Y007954D01*
X010727Y007719D02*
X010139Y007719D01*
X010057Y007637D01*
X010021Y007637D01*
X010057Y007637D02*
X010057Y006733D01*
X010139Y006651D01*
X010171Y006651D01*
X010171Y006560D01*
X010211Y006465D01*
X010284Y006392D01*
X010379Y006352D01*
X010483Y006352D01*
X010578Y006392D01*
X010652Y006465D01*
X010691Y006560D01*
X010691Y006651D01*
X010727Y006651D01*
X010809Y006733D01*
X010809Y007637D01*
X010727Y007719D01*
X010808Y007637D02*
X010844Y007637D01*
X010844Y007479D02*
X010809Y007479D01*
X010809Y007320D02*
X010844Y007320D01*
X010844Y007162D02*
X010809Y007162D01*
X010809Y007003D02*
X010844Y007003D01*
X010844Y006845D02*
X010809Y006845D01*
X010762Y006686D02*
X010891Y006686D01*
X010985Y006528D02*
X010678Y006528D01*
X010524Y006369D02*
X011138Y006369D01*
X011549Y006686D02*
X011624Y006686D01*
X011969Y006686D02*
X012046Y006686D01*
X012046Y006845D02*
X011969Y006845D01*
X011969Y007003D02*
X012046Y007003D01*
X012424Y007320D02*
X012497Y007320D01*
X012497Y007479D02*
X012424Y007479D01*
X012414Y007637D02*
X012497Y007637D01*
X011931Y009222D02*
X011821Y009222D01*
X011838Y010173D02*
X011841Y010173D01*
X011524Y010173D02*
X010726Y010173D01*
X011757Y011283D02*
X011841Y011283D01*
X010121Y008113D02*
X010099Y008113D01*
X010171Y007954D02*
X009835Y007954D01*
X009835Y007796D02*
X011441Y007796D01*
X010338Y006369D02*
X009724Y006369D01*
X009878Y006528D02*
X010185Y006528D01*
X010104Y006686D02*
X009974Y006686D01*
X010022Y006845D02*
X010057Y006845D01*
X010057Y007003D02*
X010022Y007003D01*
X010022Y007162D02*
X010057Y007162D01*
X010057Y007320D02*
X010022Y007320D01*
X010022Y007479D02*
X010057Y007479D01*
X008507Y009856D02*
X007821Y009856D01*
X007821Y009698D02*
X008421Y009698D01*
X008451Y009539D02*
X007821Y009539D01*
X007821Y010015D02*
X008511Y010015D01*
X008511Y010173D02*
X007821Y010173D01*
X007821Y010332D02*
X008511Y010332D01*
X008511Y010490D02*
X007821Y010490D01*
X007821Y010649D02*
X008511Y010649D01*
X008511Y010807D02*
X007821Y010807D01*
X007821Y010966D02*
X008511Y010966D01*
X008511Y011124D02*
X007821Y011124D01*
X007821Y013819D02*
X008009Y013819D01*
X007971Y013977D02*
X007685Y013977D01*
X007611Y014136D02*
X008037Y014136D01*
X008425Y014136D02*
X008591Y014136D01*
X008591Y014294D02*
X007068Y014294D01*
X007066Y014136D02*
X007151Y014136D01*
X007121Y013977D02*
X007065Y013977D01*
X007064Y013819D02*
X007207Y013819D01*
X007069Y014453D02*
X008591Y014453D01*
X008591Y014611D02*
X007070Y014611D01*
X007071Y014770D02*
X008591Y014770D01*
X008591Y014928D02*
X006991Y014928D01*
X006924Y015087D02*
X008591Y015087D01*
X008591Y015245D02*
X006635Y015245D01*
X006625Y015404D02*
X008591Y015404D01*
X008591Y013977D02*
X008491Y013977D01*
X009977Y017147D02*
X010067Y017147D01*
X010067Y017306D02*
X009977Y017306D01*
X009348Y018098D02*
X009027Y018098D01*
X009033Y017940D02*
X009091Y017940D01*
X009021Y017781D02*
X008971Y017781D01*
X008971Y017623D02*
X009058Y017623D01*
X008870Y018257D02*
X009382Y018257D01*
X009382Y018415D02*
X004496Y018415D01*
X004591Y018257D02*
X008692Y018257D01*
X008535Y018098D02*
X004565Y018098D01*
X004363Y017940D02*
X008530Y017940D01*
X008591Y017781D02*
X003211Y017781D01*
X003211Y017623D02*
X008591Y017623D01*
X008591Y017464D02*
X003211Y017464D01*
X003211Y017306D02*
X008591Y017306D01*
X010623Y016196D02*
X011788Y016196D01*
X011788Y015562D02*
X011421Y015562D01*
X011421Y015404D02*
X011788Y015404D01*
X011572Y018098D02*
X011035Y018098D01*
X010529Y021268D02*
X011990Y021268D01*
X012123Y003833D02*
X012497Y003833D01*
X012497Y003675D02*
X012221Y003675D01*
X012266Y003516D02*
X012497Y003516D01*
X012497Y003358D02*
X012266Y003358D01*
X012209Y003199D02*
X012492Y003199D01*
X012450Y003041D02*
X012092Y003041D01*
X012178Y002724D02*
X003530Y002724D01*
X003348Y002882D02*
X003893Y002882D01*
X004138Y002882D02*
X011570Y002882D01*
X011815Y002882D02*
X012360Y002882D01*
X011293Y003041D02*
X004415Y003041D01*
X004532Y003199D02*
X011176Y003199D01*
X011119Y003358D02*
X004589Y003358D01*
X004589Y003516D02*
X011119Y003516D01*
X003616Y003041D02*
X003258Y003041D01*
X003216Y003199D02*
X003499Y003199D01*
X003442Y003358D02*
X003211Y003358D01*
X003211Y003516D02*
X003442Y003516D01*
X003487Y003675D02*
X003211Y003675D01*
X003211Y003833D02*
X003585Y003833D01*
D19*
X010022Y018999D02*
X010092Y019001D01*
X010162Y019007D01*
X010231Y019016D01*
X010300Y019029D01*
X010367Y019046D01*
X010434Y019067D01*
X010500Y019091D01*
X010564Y019118D01*
X010627Y019149D01*
X010688Y019184D01*
X010746Y019221D01*
X010803Y019262D01*
X010858Y019306D01*
X010910Y019353D01*
X010959Y019402D01*
X011006Y019454D01*
X011050Y019509D01*
X011091Y019566D01*
X011128Y019624D01*
X011163Y019685D01*
X011194Y019748D01*
X011221Y019812D01*
X011245Y019878D01*
X011266Y019945D01*
X011283Y020012D01*
X011296Y020081D01*
X011305Y020150D01*
X011311Y020220D01*
X011313Y020290D01*
X011313Y020636D01*
M02*
