G75*
%MOIN*%
%OFA0B0*%
%FSLAX24Y24*%
%IPPOS*%
%LPD*%
%AMOC8*
5,1,8,0,0,1.08239X$1,22.5*
%
%ADD10C,0.0000*%
%ADD11C,0.0060*%
%ADD12R,0.0433X0.0394*%
%ADD13R,0.0880X0.0480*%
%ADD14R,0.0866X0.1417*%
%ADD15R,0.0394X0.0433*%
%ADD16R,0.0413X0.0374*%
%ADD17R,0.0315X0.0354*%
%ADD18C,0.0118*%
%ADD19C,0.0740*%
%ADD20C,0.0748*%
%ADD21C,0.0560*%
%ADD22R,0.0906X0.0630*%
%ADD23C,0.0100*%
%ADD24C,0.0240*%
%ADD25C,0.0080*%
%ADD26C,0.0160*%
D10*
X003031Y003256D02*
X003031Y006602D01*
X003033Y006641D01*
X003039Y006679D01*
X003048Y006716D01*
X003061Y006753D01*
X003078Y006788D01*
X003097Y006821D01*
X003120Y006852D01*
X003146Y006881D01*
X003175Y006907D01*
X003206Y006930D01*
X003239Y006949D01*
X003274Y006966D01*
X003311Y006979D01*
X003348Y006988D01*
X003386Y006994D01*
X003425Y006996D01*
X005787Y006996D01*
X005787Y013492D01*
X003425Y013492D01*
X003425Y013491D02*
X003386Y013493D01*
X003348Y013499D01*
X003311Y013508D01*
X003274Y013521D01*
X003239Y013538D01*
X003206Y013557D01*
X003175Y013580D01*
X003146Y013606D01*
X003120Y013635D01*
X003097Y013666D01*
X003078Y013699D01*
X003061Y013734D01*
X003048Y013771D01*
X003039Y013808D01*
X003033Y013846D01*
X003031Y013885D01*
X003031Y019161D01*
X003033Y019200D01*
X003039Y019238D01*
X003048Y019275D01*
X003061Y019312D01*
X003078Y019347D01*
X003097Y019380D01*
X003120Y019411D01*
X003146Y019440D01*
X003175Y019466D01*
X003206Y019489D01*
X003239Y019508D01*
X003274Y019525D01*
X003311Y019538D01*
X003348Y019547D01*
X003386Y019553D01*
X003425Y019555D01*
X009645Y019555D01*
X009671Y019557D01*
X009696Y019562D01*
X009720Y019570D01*
X009744Y019581D01*
X009765Y019596D01*
X009784Y019613D01*
X009801Y019632D01*
X009816Y019654D01*
X009827Y019677D01*
X009835Y019701D01*
X009840Y019726D01*
X009842Y019752D01*
X009842Y020578D01*
X010630Y021466D02*
X011889Y021466D01*
X011944Y021460D01*
X011998Y021452D01*
X012051Y021440D01*
X012104Y021424D01*
X012156Y021405D01*
X012206Y021383D01*
X012254Y021357D01*
X012301Y021328D01*
X012346Y021297D01*
X012389Y021262D01*
X012429Y021225D01*
X012467Y021185D01*
X012502Y021143D01*
X012534Y021098D01*
X012563Y021052D01*
X012589Y021003D01*
X012612Y020954D01*
X012632Y020902D01*
X012648Y020850D01*
X012661Y020796D01*
X012670Y020742D01*
X012676Y020688D01*
X012678Y020633D01*
X012677Y020578D01*
X012677Y003256D01*
X012676Y003256D02*
X012674Y003202D01*
X012669Y003149D01*
X012660Y003096D01*
X012647Y003044D01*
X012631Y002992D01*
X012611Y002942D01*
X012588Y002894D01*
X012561Y002847D01*
X012532Y002802D01*
X012499Y002759D01*
X012464Y002719D01*
X012426Y002681D01*
X012386Y002646D01*
X012343Y002613D01*
X012298Y002584D01*
X012251Y002557D01*
X012203Y002534D01*
X012153Y002514D01*
X012101Y002498D01*
X012049Y002485D01*
X011996Y002476D01*
X011943Y002471D01*
X011889Y002469D01*
X011889Y002468D02*
X003819Y002468D01*
X003819Y002469D02*
X003765Y002471D01*
X003712Y002476D01*
X003659Y002485D01*
X003607Y002498D01*
X003555Y002514D01*
X003505Y002534D01*
X003457Y002557D01*
X003410Y002584D01*
X003365Y002613D01*
X003322Y002646D01*
X003282Y002681D01*
X003244Y002719D01*
X003209Y002759D01*
X003176Y002802D01*
X003147Y002847D01*
X003120Y002894D01*
X003097Y002942D01*
X003077Y002992D01*
X003061Y003044D01*
X003048Y003096D01*
X003039Y003149D01*
X003034Y003202D01*
X003032Y003256D01*
X003621Y003452D02*
X003623Y003491D01*
X003629Y003530D01*
X003639Y003568D01*
X003652Y003605D01*
X003669Y003640D01*
X003689Y003674D01*
X003713Y003705D01*
X003740Y003734D01*
X003769Y003760D01*
X003801Y003783D01*
X003835Y003803D01*
X003871Y003819D01*
X003908Y003831D01*
X003947Y003840D01*
X003986Y003845D01*
X004025Y003846D01*
X004064Y003843D01*
X004103Y003836D01*
X004140Y003825D01*
X004177Y003811D01*
X004212Y003793D01*
X004245Y003772D01*
X004276Y003747D01*
X004304Y003720D01*
X004329Y003690D01*
X004351Y003657D01*
X004370Y003623D01*
X004385Y003587D01*
X004397Y003549D01*
X004405Y003511D01*
X004409Y003472D01*
X004409Y003432D01*
X004405Y003393D01*
X004397Y003355D01*
X004385Y003317D01*
X004370Y003281D01*
X004351Y003247D01*
X004329Y003214D01*
X004304Y003184D01*
X004276Y003157D01*
X004245Y003132D01*
X004212Y003111D01*
X004177Y003093D01*
X004140Y003079D01*
X004103Y003068D01*
X004064Y003061D01*
X004025Y003058D01*
X003986Y003059D01*
X003947Y003064D01*
X003908Y003073D01*
X003871Y003085D01*
X003835Y003101D01*
X003801Y003121D01*
X003769Y003144D01*
X003740Y003170D01*
X003713Y003199D01*
X003689Y003230D01*
X003669Y003264D01*
X003652Y003299D01*
X003639Y003336D01*
X003629Y003374D01*
X003623Y003413D01*
X003621Y003452D01*
X011299Y003452D02*
X011301Y003491D01*
X011307Y003530D01*
X011317Y003568D01*
X011330Y003605D01*
X011347Y003640D01*
X011367Y003674D01*
X011391Y003705D01*
X011418Y003734D01*
X011447Y003760D01*
X011479Y003783D01*
X011513Y003803D01*
X011549Y003819D01*
X011586Y003831D01*
X011625Y003840D01*
X011664Y003845D01*
X011703Y003846D01*
X011742Y003843D01*
X011781Y003836D01*
X011818Y003825D01*
X011855Y003811D01*
X011890Y003793D01*
X011923Y003772D01*
X011954Y003747D01*
X011982Y003720D01*
X012007Y003690D01*
X012029Y003657D01*
X012048Y003623D01*
X012063Y003587D01*
X012075Y003549D01*
X012083Y003511D01*
X012087Y003472D01*
X012087Y003432D01*
X012083Y003393D01*
X012075Y003355D01*
X012063Y003317D01*
X012048Y003281D01*
X012029Y003247D01*
X012007Y003214D01*
X011982Y003184D01*
X011954Y003157D01*
X011923Y003132D01*
X011890Y003111D01*
X011855Y003093D01*
X011818Y003079D01*
X011781Y003068D01*
X011742Y003061D01*
X011703Y003058D01*
X011664Y003059D01*
X011625Y003064D01*
X011586Y003073D01*
X011549Y003085D01*
X011513Y003101D01*
X011479Y003121D01*
X011447Y003144D01*
X011418Y003170D01*
X011391Y003199D01*
X011367Y003230D01*
X011347Y003264D01*
X011330Y003299D01*
X011317Y003336D01*
X011307Y003374D01*
X011301Y003413D01*
X011299Y003452D01*
X009842Y020578D02*
X009841Y020633D01*
X009843Y020688D01*
X009849Y020742D01*
X009858Y020796D01*
X009871Y020850D01*
X009887Y020902D01*
X009907Y020954D01*
X009930Y021003D01*
X009956Y021052D01*
X009985Y021098D01*
X010017Y021143D01*
X010052Y021185D01*
X010090Y021225D01*
X010130Y021262D01*
X010173Y021297D01*
X010218Y021328D01*
X010265Y021357D01*
X010313Y021383D01*
X010363Y021405D01*
X010415Y021424D01*
X010468Y021440D01*
X010521Y021452D01*
X010575Y021460D01*
X010630Y021466D01*
D11*
X011392Y005818D02*
X011335Y005761D01*
X011335Y005591D01*
X011675Y005591D01*
X011675Y005761D01*
X011618Y005818D01*
X011392Y005818D01*
X011448Y005449D02*
X011675Y005449D01*
X011505Y005449D02*
X011505Y005223D01*
X011448Y005223D02*
X011335Y005336D01*
X011448Y005449D01*
X011448Y005223D02*
X011675Y005223D01*
X011618Y005081D02*
X011392Y005081D01*
X011335Y005024D01*
X011335Y004854D01*
X011675Y004854D01*
X011675Y005024D01*
X011618Y005081D01*
X011505Y004713D02*
X011505Y004486D01*
X011335Y004656D01*
X011675Y004656D01*
D12*
X011145Y007116D03*
X011145Y007785D03*
X010352Y007765D03*
X010352Y007095D03*
X009636Y007095D03*
X009636Y007765D03*
X007529Y007198D03*
X006860Y007198D03*
X006594Y011654D03*
X006594Y012323D03*
X007250Y012337D03*
X007250Y011667D03*
X007912Y011683D03*
X007912Y012352D03*
X009092Y012623D03*
X009092Y011954D03*
X012205Y015920D03*
X012205Y016589D03*
D13*
X007005Y010575D03*
X007005Y009665D03*
X007005Y008755D03*
D14*
X009445Y009665D03*
D15*
X009852Y011907D03*
X009852Y012576D03*
X010615Y012576D03*
X010615Y011907D03*
X011327Y011907D03*
X011327Y012576D03*
X010966Y017189D03*
X010966Y017858D03*
D16*
X004761Y006396D03*
X004761Y005176D03*
D17*
X011259Y010244D03*
X011633Y009417D03*
X012007Y010244D03*
D18*
X012067Y017156D02*
X012343Y017156D01*
X012067Y017156D02*
X012067Y017432D01*
X012343Y017432D01*
X012343Y017156D01*
X012343Y017273D02*
X012067Y017273D01*
X012067Y017390D02*
X012343Y017390D01*
X012343Y017847D02*
X012067Y017847D01*
X012067Y018123D01*
X012343Y018123D01*
X012343Y017847D01*
X012343Y017964D02*
X012067Y017964D01*
X012067Y018081D02*
X012343Y018081D01*
X003601Y017832D02*
X003325Y017832D01*
X003325Y018108D01*
X003601Y018108D01*
X003601Y017832D01*
X003601Y017949D02*
X003325Y017949D01*
X003325Y018066D02*
X003601Y018066D01*
X003601Y017141D02*
X003325Y017141D01*
X003325Y017417D01*
X003601Y017417D01*
X003601Y017141D01*
X003601Y017258D02*
X003325Y017258D01*
X003325Y017375D02*
X003601Y017375D01*
D19*
X006574Y005161D03*
X007509Y005161D03*
X008396Y005161D03*
X009330Y005161D03*
X011313Y020636D03*
D20*
X010236Y004216D03*
X005669Y004216D03*
D21*
X007067Y014317D03*
X007460Y015104D03*
X007854Y014317D03*
X008248Y015104D03*
X008641Y014317D03*
D22*
X009045Y016667D03*
X006565Y016667D03*
D23*
X006581Y016683D01*
X006581Y017662D01*
X006681Y017762D01*
X009281Y017762D01*
X008781Y018012D02*
X008581Y018212D01*
X004331Y018212D01*
X003463Y017279D02*
X003481Y017261D01*
X003481Y016462D01*
X003781Y016162D01*
X011781Y016162D01*
X012031Y016412D01*
X012031Y016512D01*
X012108Y016589D01*
X012205Y016589D01*
X012205Y017294D01*
X011881Y017662D02*
X011381Y017162D01*
X010993Y017162D01*
X010966Y017189D01*
X011881Y017662D02*
X012204Y017985D01*
X012205Y017985D01*
X012205Y015920D02*
X012331Y015794D01*
X012331Y015512D01*
X011581Y015112D02*
X008256Y015112D01*
X008248Y015104D01*
X007854Y014317D02*
X008209Y013962D01*
X008231Y013962D01*
X008031Y013762D02*
X008081Y013712D01*
X010231Y013712D01*
X010331Y013812D01*
X011131Y012612D02*
X010981Y012462D01*
X010981Y012362D01*
X011131Y012612D02*
X011181Y012612D01*
X011331Y012462D01*
X011431Y012462D01*
X011631Y011512D02*
X011531Y011412D01*
X009731Y011412D01*
X009031Y011062D02*
X008381Y011062D01*
X006531Y011062D01*
X006594Y011654D02*
X006594Y011975D01*
X006631Y012012D01*
X008181Y012012D01*
X008281Y012112D01*
X008281Y012362D01*
X008381Y012462D01*
X008731Y012462D01*
X008931Y012012D02*
X008931Y011862D01*
X008990Y011954D02*
X008931Y012012D01*
X008990Y011954D02*
X009092Y011954D01*
X008102Y011683D02*
X007912Y011683D01*
X007897Y012337D02*
X007912Y012352D01*
X007897Y012337D02*
X007250Y012337D01*
X007250Y012631D01*
X007281Y012662D01*
X006594Y012600D02*
X006594Y012323D01*
X006594Y012600D02*
X006531Y012662D01*
X007231Y013762D02*
X007181Y013812D01*
X007081Y013912D01*
X006881Y013912D01*
X006831Y013962D01*
X006781Y013962D01*
X006481Y014262D01*
X004381Y014262D01*
X004381Y015062D02*
X006581Y015062D01*
X006731Y014912D01*
X007067Y014317D02*
X007076Y014317D01*
X007381Y014012D01*
X007231Y013762D02*
X008031Y013762D01*
X009150Y016562D02*
X009045Y016667D01*
X009150Y016562D02*
X009731Y016562D01*
X010631Y015812D02*
X011181Y015812D01*
X011231Y015762D01*
X010981Y010562D02*
X010981Y010262D01*
X011240Y010262D01*
X011259Y010244D01*
X010981Y010262D02*
X010481Y010262D01*
X011681Y009962D02*
X011781Y010062D01*
X011831Y010112D01*
X011875Y010112D01*
X012007Y010244D01*
X012031Y009462D02*
X011986Y009417D01*
X011633Y009417D01*
X010381Y008112D02*
X010352Y008083D01*
X010352Y007765D01*
X009636Y007765D01*
X009931Y008312D02*
X008931Y008312D01*
X008881Y008262D01*
X009636Y007095D02*
X009631Y007090D01*
X009631Y006612D01*
X010352Y007095D02*
X010431Y007016D01*
X010431Y006612D01*
X011145Y007116D02*
X011231Y007030D01*
X011231Y006612D01*
X008081Y007862D02*
X007981Y007962D01*
X007131Y007962D01*
X003481Y017261D02*
X003463Y017279D01*
D24*
X004015Y017626D03*
X004331Y018212D03*
X004606Y019200D03*
X005197Y019200D03*
X005787Y019200D03*
X006378Y019200D03*
X006968Y019200D03*
X007559Y019200D03*
X008543Y019200D03*
X009134Y019200D03*
X009983Y019475D03*
X010383Y019525D03*
X010683Y019825D03*
X010833Y020225D03*
X010718Y020825D03*
X010968Y021125D03*
X011368Y021225D03*
X011718Y021075D03*
X011918Y020725D03*
X011833Y020325D03*
X011783Y019885D03*
X011583Y019494D03*
X011383Y019154D03*
X011118Y018894D03*
X010831Y018262D03*
X010768Y018685D03*
X011681Y017862D03*
X011581Y017062D03*
X011231Y015762D03*
X011581Y015112D03*
X012331Y015512D03*
X010631Y015812D03*
X010400Y016669D03*
X009731Y016562D03*
X009281Y017762D03*
X008781Y018012D03*
X006731Y014912D03*
X006381Y015312D03*
X006378Y015854D03*
X005787Y015657D03*
X005197Y015657D03*
X004606Y015657D03*
X004381Y015062D03*
X004015Y015657D03*
X004015Y016641D03*
X003425Y015657D03*
X004381Y014262D03*
X004803Y013885D03*
X005590Y013885D03*
X006531Y012662D03*
X007281Y012662D03*
X007231Y011312D03*
X006531Y011062D03*
X007081Y009212D03*
X007131Y007962D03*
X008081Y007862D03*
X008149Y008767D03*
X008681Y009662D03*
X008149Y010539D03*
X008431Y011562D03*
X008731Y012462D03*
X009481Y012312D03*
X009731Y011412D03*
X009031Y011062D03*
X010511Y010933D03*
X010481Y010262D03*
X010981Y010562D03*
X011496Y010933D03*
X011631Y011512D03*
X012283Y011720D03*
X012283Y011130D03*
X011681Y009962D03*
X012031Y009462D03*
X012283Y008964D03*
X012283Y008374D03*
X011231Y006612D03*
X010431Y006612D03*
X010118Y006208D03*
X009527Y006208D03*
X009631Y006612D03*
X008937Y006208D03*
X008346Y006208D03*
X007756Y006208D03*
X007165Y006208D03*
X006574Y006208D03*
X008881Y008262D03*
X009931Y008312D03*
X010381Y008112D03*
X010905Y009161D03*
X012283Y006405D03*
X012283Y005815D03*
X012283Y005224D03*
X012283Y004633D03*
X012283Y004043D03*
X010981Y012362D03*
X010331Y013812D03*
X011981Y012612D03*
X008231Y013962D03*
X007381Y014012D03*
X003425Y006602D03*
X003425Y006011D03*
D25*
X008102Y011683D02*
X008331Y011912D01*
X008381Y011912D01*
X008681Y012212D01*
X008781Y012212D01*
X008831Y012262D01*
X009431Y012262D01*
X009481Y012312D01*
X009092Y011954D02*
X009092Y011623D01*
X009031Y011562D01*
X008431Y011562D01*
D26*
X008619Y011382D02*
X008578Y011342D01*
X008483Y011302D01*
X008379Y011302D01*
X008284Y011342D01*
X008233Y011393D01*
X008187Y011346D01*
X007638Y011346D01*
X007616Y011368D01*
X007611Y011360D01*
X007577Y011326D01*
X007536Y011303D01*
X007490Y011290D01*
X007268Y011290D01*
X007268Y011649D01*
X007232Y011649D01*
X007232Y011290D01*
X007010Y011290D01*
X006964Y011303D01*
X006923Y011326D01*
X006901Y011349D01*
X006868Y011317D01*
X006596Y011317D01*
X006678Y011283D01*
X008884Y011283D01*
X008853Y011252D01*
X006709Y011252D01*
X006678Y011283D01*
X006466Y011317D02*
X006384Y011283D01*
X005985Y011283D01*
X005985Y011441D02*
X006237Y011441D01*
X006237Y011399D02*
X006319Y011317D01*
X006466Y011317D01*
X006384Y011283D02*
X006311Y011209D01*
X006271Y011114D01*
X006271Y011010D01*
X006311Y010915D01*
X006384Y010842D01*
X006386Y010841D01*
X006385Y010838D01*
X006385Y010615D01*
X006965Y010615D01*
X006965Y010535D01*
X006385Y010535D01*
X006385Y010311D01*
X006397Y010265D01*
X006421Y010224D01*
X006454Y010191D01*
X006495Y010167D01*
X006541Y010155D01*
X006965Y010155D01*
X006965Y010535D01*
X007045Y010535D01*
X007045Y010615D01*
X007625Y010615D01*
X007625Y010838D01*
X007616Y010872D01*
X008853Y010872D01*
X008884Y010842D01*
X008979Y010802D01*
X009083Y010802D01*
X009178Y010842D01*
X009252Y010915D01*
X009291Y011010D01*
X009291Y011114D01*
X009252Y011209D01*
X009178Y011283D01*
X009503Y011283D01*
X009511Y011265D02*
X009584Y011192D01*
X009679Y011152D01*
X009783Y011152D01*
X009878Y011192D01*
X009909Y011222D01*
X011610Y011222D01*
X011640Y011252D01*
X011683Y011252D01*
X011778Y011292D01*
X011852Y011365D01*
X011891Y011460D01*
X011891Y011564D01*
X011852Y011659D01*
X011778Y011733D01*
X011704Y011763D01*
X011704Y011889D01*
X011346Y011889D01*
X011346Y011926D01*
X011704Y011926D01*
X011704Y012147D01*
X011692Y012193D01*
X011668Y012234D01*
X011635Y012268D01*
X011632Y012269D01*
X011664Y012302D01*
X011664Y012356D01*
X011919Y012356D01*
X011929Y012352D01*
X012033Y012352D01*
X012128Y012392D01*
X012202Y012465D01*
X012241Y012560D01*
X012241Y012664D01*
X012202Y012759D01*
X012128Y012833D01*
X012033Y012872D01*
X011929Y012872D01*
X011834Y012833D01*
X011798Y012796D01*
X011664Y012796D01*
X011664Y012851D01*
X011582Y012933D01*
X011072Y012933D01*
X010990Y012851D01*
X010990Y012796D01*
X010951Y012796D01*
X010951Y012851D01*
X010869Y012933D01*
X010360Y012933D01*
X010278Y012851D01*
X010278Y012796D01*
X010189Y012796D01*
X010189Y012851D01*
X010107Y012933D01*
X009597Y012933D01*
X009515Y012851D01*
X009515Y012843D01*
X009449Y012843D01*
X009449Y012878D01*
X009367Y012960D01*
X008818Y012960D01*
X008736Y012878D01*
X008736Y012828D01*
X008611Y012703D01*
X008595Y012687D01*
X008584Y012683D01*
X008553Y012652D01*
X008302Y012652D01*
X008263Y012613D01*
X008187Y012689D01*
X007638Y012689D01*
X007573Y012625D01*
X007541Y012657D01*
X007541Y012714D01*
X007502Y012809D01*
X007428Y012883D01*
X007333Y012922D01*
X007229Y012922D01*
X007134Y012883D01*
X007061Y012809D01*
X007021Y012714D01*
X007021Y012673D01*
X006976Y012673D01*
X006915Y012613D01*
X006868Y012660D01*
X006791Y012660D01*
X006791Y012714D01*
X006752Y012809D01*
X006678Y012883D01*
X006583Y012922D01*
X006479Y012922D01*
X006384Y012883D01*
X006311Y012809D01*
X006271Y012714D01*
X006271Y012612D01*
X006237Y012578D01*
X006237Y012068D01*
X006317Y011988D01*
X006237Y011908D01*
X006237Y011399D01*
X006237Y011600D02*
X005985Y011600D01*
X005985Y011758D02*
X006237Y011758D01*
X006246Y011917D02*
X005985Y011917D01*
X005985Y012075D02*
X006237Y012075D01*
X006237Y012234D02*
X005985Y012234D01*
X005985Y012392D02*
X006237Y012392D01*
X006237Y012551D02*
X005985Y012551D01*
X005985Y012709D02*
X006271Y012709D01*
X006369Y012868D02*
X005985Y012868D01*
X005985Y013026D02*
X012497Y013026D01*
X012497Y012868D02*
X012044Y012868D01*
X011919Y012868D02*
X011647Y012868D01*
X011945Y012576D02*
X011327Y012576D01*
X011327Y012566D01*
X011431Y012462D01*
X011327Y012576D02*
X010615Y012576D01*
X009852Y012576D01*
X009806Y012623D01*
X009092Y012623D01*
X009082Y012612D01*
X008831Y012612D01*
X008731Y012512D01*
X008731Y012462D01*
X008617Y012709D02*
X007541Y012709D01*
X007443Y012868D02*
X008736Y012868D01*
X009082Y012612D02*
X009092Y012623D01*
X009449Y012868D02*
X009532Y012868D01*
X009475Y012052D02*
X009475Y011926D01*
X009834Y011926D01*
X009834Y011889D01*
X009475Y011889D01*
X009475Y011667D01*
X009487Y011621D01*
X009511Y011580D01*
X009521Y011570D01*
X009511Y011559D01*
X009471Y011464D01*
X009471Y011360D01*
X009511Y011265D01*
X009471Y011441D02*
X009165Y011441D01*
X009106Y011382D02*
X009272Y011549D01*
X009272Y011617D01*
X009367Y011617D01*
X009449Y011699D01*
X009449Y012052D01*
X009475Y012052D01*
X009449Y011917D02*
X009834Y011917D01*
X009870Y011917D02*
X010596Y011917D01*
X010596Y011926D02*
X010596Y011889D01*
X010238Y011889D01*
X010238Y011667D01*
X010250Y011621D01*
X010261Y011602D01*
X010206Y011602D01*
X010217Y011621D01*
X010229Y011667D01*
X010229Y011889D01*
X009870Y011889D01*
X009870Y011926D01*
X010229Y011926D01*
X010229Y012147D01*
X010217Y012193D01*
X010193Y012234D01*
X010159Y012268D01*
X010156Y012269D01*
X010189Y012302D01*
X010189Y012356D01*
X010278Y012356D01*
X010278Y012302D01*
X010310Y012269D01*
X010307Y012268D01*
X010274Y012234D01*
X010250Y012193D01*
X010238Y012147D01*
X010238Y011926D01*
X010596Y011926D01*
X010633Y011926D02*
X010991Y011926D01*
X011309Y011926D01*
X011309Y011889D01*
X010633Y011889D01*
X010633Y011926D01*
X010633Y011917D02*
X011309Y011917D01*
X011346Y011917D02*
X012497Y011917D01*
X012497Y012075D02*
X011704Y012075D01*
X011668Y012234D02*
X012497Y012234D01*
X012497Y012392D02*
X012129Y012392D01*
X012237Y012551D02*
X012497Y012551D01*
X012497Y012709D02*
X012222Y012709D01*
X011981Y012612D02*
X011945Y012576D01*
X011717Y011758D02*
X012497Y011758D01*
X012497Y011600D02*
X011876Y011600D01*
X011883Y011441D02*
X012497Y011441D01*
X012497Y011283D02*
X011757Y011283D01*
X011791Y010561D02*
X011709Y010479D01*
X011709Y010259D01*
X011672Y010222D01*
X011629Y010222D01*
X011556Y010192D01*
X011556Y010479D01*
X011474Y010561D01*
X011241Y010561D01*
X011241Y010614D01*
X011202Y010709D01*
X011128Y010783D01*
X011033Y010822D01*
X010929Y010822D01*
X010834Y010783D01*
X010761Y010709D01*
X010721Y010614D01*
X010721Y010510D01*
X010745Y010452D01*
X010659Y010452D01*
X010628Y010483D01*
X010533Y010522D01*
X010429Y010522D01*
X010334Y010483D01*
X010261Y010409D01*
X010221Y010314D01*
X010221Y010210D01*
X010261Y010115D01*
X010334Y010042D01*
X010429Y010002D01*
X010533Y010002D01*
X010628Y010042D01*
X010659Y010072D01*
X010961Y010072D01*
X010961Y010009D01*
X011043Y009927D01*
X011421Y009927D01*
X011421Y009910D01*
X011461Y009815D01*
X011534Y009742D01*
X011552Y009734D01*
X011417Y009734D01*
X011335Y009652D01*
X011335Y009182D01*
X011417Y009100D01*
X011848Y009100D01*
X011930Y009182D01*
X011930Y009223D01*
X011979Y009202D01*
X012083Y009202D01*
X012178Y009242D01*
X012252Y009315D01*
X012291Y009410D01*
X012291Y009514D01*
X012252Y009609D01*
X012178Y009683D01*
X012083Y009722D01*
X011979Y009722D01*
X011895Y009687D01*
X011848Y009734D01*
X011810Y009734D01*
X011828Y009742D01*
X011902Y009815D01*
X011941Y009910D01*
X011941Y009922D01*
X011954Y009922D01*
X011958Y009927D01*
X012222Y009927D01*
X012304Y010009D01*
X012304Y010479D01*
X012222Y010561D01*
X011791Y010561D01*
X011721Y010490D02*
X011545Y010490D01*
X011556Y010332D02*
X011709Y010332D01*
X011919Y009856D02*
X012497Y009856D01*
X012497Y009698D02*
X012142Y009698D01*
X012281Y009539D02*
X012497Y009539D01*
X012497Y009381D02*
X012279Y009381D01*
X012131Y009222D02*
X012497Y009222D01*
X012497Y009064D02*
X010018Y009064D01*
X010018Y009222D02*
X011335Y009222D01*
X011335Y009381D02*
X010018Y009381D01*
X010018Y009539D02*
X011335Y009539D01*
X011381Y009698D02*
X010018Y009698D01*
X010018Y009856D02*
X011444Y009856D01*
X010961Y010015D02*
X010563Y010015D01*
X010399Y010015D02*
X010018Y010015D01*
X010018Y010173D02*
X010237Y010173D01*
X010229Y010332D02*
X010018Y010332D01*
X010018Y010431D02*
X009936Y010513D01*
X008954Y010513D01*
X008872Y010431D01*
X008872Y009839D01*
X008828Y009883D01*
X008733Y009922D01*
X008629Y009922D01*
X008534Y009883D01*
X008533Y009882D01*
X007585Y009882D01*
X007585Y009963D01*
X007503Y010045D01*
X006507Y010045D01*
X006425Y009963D01*
X006425Y009367D01*
X006507Y009285D01*
X007503Y009285D01*
X007585Y009367D01*
X007585Y009442D01*
X008533Y009442D01*
X008534Y009442D01*
X008629Y009402D01*
X008733Y009402D01*
X008828Y009442D01*
X008872Y009485D01*
X008872Y008898D01*
X008954Y008816D01*
X009936Y008816D01*
X010018Y008898D01*
X010018Y010431D01*
X009959Y010490D02*
X010352Y010490D01*
X010610Y010490D02*
X010730Y010490D01*
X010736Y010649D02*
X007625Y010649D01*
X007625Y010535D02*
X007045Y010535D01*
X007045Y010155D01*
X007469Y010155D01*
X007514Y010167D01*
X007555Y010191D01*
X007589Y010224D01*
X007613Y010265D01*
X007625Y010311D01*
X007625Y010535D01*
X007625Y010490D02*
X008931Y010490D01*
X008872Y010332D02*
X007625Y010332D01*
X007525Y010173D02*
X008872Y010173D01*
X008872Y010015D02*
X007533Y010015D01*
X007585Y009381D02*
X008872Y009381D01*
X008872Y009222D02*
X005985Y009222D01*
X005985Y009064D02*
X006436Y009064D01*
X006425Y009053D02*
X006507Y009135D01*
X007503Y009135D01*
X007585Y009053D01*
X007585Y008457D01*
X007503Y008375D01*
X007080Y008375D01*
X007080Y008222D01*
X007183Y008222D01*
X007278Y008183D01*
X007309Y008152D01*
X008060Y008152D01*
X008090Y008122D01*
X008133Y008122D01*
X008228Y008083D01*
X008302Y008009D01*
X008341Y007914D01*
X008341Y007810D01*
X008302Y007715D01*
X008228Y007642D01*
X008133Y007602D01*
X008029Y007602D01*
X007934Y007642D01*
X007861Y007715D01*
X007837Y007772D01*
X007309Y007772D01*
X007278Y007742D01*
X007183Y007702D01*
X007080Y007702D01*
X007080Y007535D01*
X007134Y007535D01*
X007167Y007503D01*
X007168Y007506D01*
X007202Y007539D01*
X007243Y007563D01*
X007289Y007575D01*
X007510Y007575D01*
X007510Y007217D01*
X007547Y007217D01*
X007547Y007575D01*
X007769Y007575D01*
X007815Y007563D01*
X007856Y007539D01*
X007889Y007506D01*
X007913Y007465D01*
X007925Y007419D01*
X007925Y007217D01*
X007547Y007217D01*
X007547Y007180D01*
X007547Y006822D01*
X007769Y006822D01*
X007815Y006834D01*
X007856Y006858D01*
X007889Y006891D01*
X007913Y006932D01*
X007925Y006978D01*
X007925Y007180D01*
X007547Y007180D01*
X007510Y007180D01*
X007510Y006822D01*
X007289Y006822D01*
X007243Y006834D01*
X007202Y006858D01*
X007168Y006891D01*
X007167Y006894D01*
X007134Y006862D01*
X006834Y006862D01*
X006148Y006176D01*
X005108Y006176D01*
X005108Y006151D01*
X005026Y006069D01*
X004497Y006069D01*
X004415Y006151D01*
X004415Y006641D01*
X004497Y006723D01*
X005026Y006723D01*
X005108Y006641D01*
X005108Y006616D01*
X005966Y006616D01*
X006503Y007153D01*
X006503Y007453D01*
X006585Y007535D01*
X006640Y007535D01*
X006640Y008375D01*
X006507Y008375D01*
X006425Y008457D01*
X006425Y009053D01*
X006425Y008905D02*
X005985Y008905D01*
X005985Y008747D02*
X006425Y008747D01*
X006425Y008588D02*
X005985Y008588D01*
X005985Y008430D02*
X006452Y008430D01*
X006640Y008271D02*
X005985Y008271D01*
X005985Y008113D02*
X006640Y008113D01*
X006640Y007954D02*
X005985Y007954D01*
X005985Y007796D02*
X006640Y007796D01*
X006640Y007637D02*
X005985Y007637D01*
X005985Y007479D02*
X006528Y007479D01*
X006503Y007320D02*
X005985Y007320D01*
X005985Y007162D02*
X006503Y007162D01*
X006353Y007003D02*
X005967Y007003D01*
X005967Y007016D02*
X005985Y007034D01*
X005985Y013399D01*
X005967Y013417D01*
X005967Y013566D01*
X005862Y013672D01*
X003425Y013672D01*
X003383Y013676D01*
X003306Y013708D01*
X003247Y013767D01*
X003215Y013844D01*
X003211Y013885D01*
X003211Y016974D01*
X003243Y016942D01*
X003291Y016942D01*
X003291Y016384D01*
X003402Y016272D01*
X003702Y015972D01*
X010423Y015972D01*
X010411Y015959D01*
X010371Y015864D01*
X010371Y015760D01*
X010411Y015665D01*
X010484Y015592D01*
X010579Y015552D01*
X010683Y015552D01*
X010778Y015592D01*
X010809Y015622D01*
X011008Y015622D01*
X011011Y015615D01*
X011084Y015542D01*
X011179Y015502D01*
X011283Y015502D01*
X011378Y015542D01*
X011452Y015615D01*
X011491Y015710D01*
X011491Y015814D01*
X011452Y015909D01*
X011389Y015972D01*
X011849Y015972D01*
X011849Y015665D01*
X011931Y015583D01*
X012079Y015583D01*
X012071Y015564D01*
X012071Y015460D01*
X012111Y015365D01*
X012184Y015292D01*
X012279Y015252D01*
X012383Y015252D01*
X012478Y015292D01*
X012497Y015310D01*
X012497Y003256D01*
X012489Y003160D01*
X012431Y002980D01*
X012319Y002826D01*
X012165Y002714D01*
X011984Y002656D01*
X011889Y002648D01*
X003819Y002648D01*
X003724Y002656D01*
X003543Y002714D01*
X003389Y002826D01*
X003277Y002980D01*
X003219Y003160D01*
X003211Y003256D01*
X003211Y006602D01*
X003215Y006644D01*
X003247Y006721D01*
X003306Y006780D01*
X003383Y006812D01*
X003425Y006816D01*
X005862Y006816D01*
X005967Y006921D01*
X005967Y007016D01*
X005891Y006845D02*
X006195Y006845D01*
X006036Y006686D02*
X005063Y006686D01*
X004761Y006396D02*
X006057Y006396D01*
X006860Y007198D01*
X006860Y008609D01*
X007005Y008755D01*
X007080Y008271D02*
X008621Y008271D01*
X008621Y008314D02*
X008621Y008210D01*
X008661Y008115D01*
X008734Y008042D01*
X008829Y008002D01*
X008933Y008002D01*
X009028Y008042D01*
X009102Y008115D01*
X009105Y008122D01*
X009753Y008122D01*
X009774Y008101D01*
X009362Y008101D01*
X009280Y008019D01*
X009280Y007510D01*
X009360Y007430D01*
X009280Y007350D01*
X009280Y006840D01*
X009362Y006758D01*
X009410Y006758D01*
X009371Y006664D01*
X009371Y006560D01*
X009411Y006465D01*
X009484Y006392D01*
X009579Y006352D01*
X009683Y006352D01*
X009778Y006392D01*
X009852Y006465D01*
X009891Y006560D01*
X009891Y006664D01*
X009852Y006758D01*
X009911Y006758D01*
X009993Y006840D01*
X009993Y007350D01*
X009913Y007430D01*
X009993Y007510D01*
X009993Y007575D01*
X009995Y007575D01*
X009995Y007510D01*
X010075Y007430D01*
X009995Y007350D01*
X009995Y006840D01*
X010078Y006758D01*
X010210Y006758D01*
X010171Y006664D01*
X010171Y006560D01*
X010211Y006465D01*
X010284Y006392D01*
X010379Y006352D01*
X010483Y006352D01*
X010578Y006392D01*
X010652Y006465D01*
X010691Y006560D01*
X010691Y006664D01*
X010652Y006759D01*
X010640Y006771D01*
X010709Y006840D01*
X010709Y007350D01*
X010629Y007430D01*
X010709Y007510D01*
X010709Y008019D01*
X010641Y008087D01*
X010641Y008164D01*
X010602Y008259D01*
X010528Y008333D01*
X010433Y008372D01*
X010329Y008372D01*
X010234Y008333D01*
X010191Y008290D01*
X010191Y008364D01*
X010152Y008459D01*
X010078Y008533D01*
X009983Y008572D01*
X009879Y008572D01*
X009784Y008533D01*
X009753Y008502D01*
X008981Y008502D01*
X008933Y008522D01*
X008829Y008522D01*
X008734Y008483D01*
X008661Y008409D01*
X008621Y008314D01*
X008681Y008430D02*
X007558Y008430D01*
X007585Y008588D02*
X012497Y008588D01*
X012497Y008430D02*
X010164Y008430D01*
X010018Y008905D02*
X012497Y008905D01*
X012497Y008747D02*
X007585Y008747D01*
X007585Y008905D02*
X008872Y008905D01*
X008872Y009064D02*
X007574Y009064D01*
X007007Y009662D02*
X007005Y009665D01*
X007007Y009662D02*
X008281Y009662D01*
X008681Y009662D01*
X008855Y009856D02*
X008872Y009856D01*
X008967Y010807D02*
X007625Y010807D01*
X007268Y011441D02*
X007232Y011441D01*
X007232Y011600D02*
X007268Y011600D01*
X007045Y010490D02*
X006965Y010490D01*
X006965Y010332D02*
X007045Y010332D01*
X007045Y010173D02*
X006965Y010173D01*
X006484Y010173D02*
X005985Y010173D01*
X005985Y010015D02*
X006477Y010015D01*
X006425Y009856D02*
X005985Y009856D01*
X005985Y009698D02*
X006425Y009698D01*
X006425Y009539D02*
X005985Y009539D01*
X005985Y009381D02*
X006425Y009381D01*
X006385Y010332D02*
X005985Y010332D01*
X005985Y010490D02*
X006385Y010490D01*
X006385Y010649D02*
X005985Y010649D01*
X005985Y010807D02*
X006385Y010807D01*
X006290Y010966D02*
X005985Y010966D01*
X005985Y011124D02*
X006275Y011124D01*
X006791Y012709D02*
X007021Y012709D01*
X007119Y012868D02*
X006693Y012868D01*
X007152Y013572D02*
X007041Y013684D01*
X007002Y013722D01*
X006802Y013722D01*
X006752Y013772D01*
X006702Y013772D01*
X006591Y013884D01*
X006402Y014072D01*
X004559Y014072D01*
X004528Y014042D01*
X004433Y014002D01*
X004329Y014002D01*
X004234Y014042D01*
X004161Y014115D01*
X004121Y014210D01*
X004121Y014314D01*
X004161Y014409D01*
X004234Y014483D01*
X004329Y014522D01*
X004433Y014522D01*
X004528Y014483D01*
X004559Y014452D01*
X006560Y014452D01*
X006647Y014365D01*
X006647Y014400D01*
X006711Y014555D01*
X006826Y014670D01*
X006783Y014652D01*
X006679Y014652D01*
X006584Y014692D01*
X006511Y014765D01*
X006471Y014860D01*
X006471Y014872D01*
X004559Y014872D01*
X004528Y014842D01*
X004433Y014802D01*
X004329Y014802D01*
X004234Y014842D01*
X004161Y014915D01*
X004121Y015010D01*
X004121Y015114D01*
X004161Y015209D01*
X004234Y015283D01*
X004329Y015322D01*
X004433Y015322D01*
X004528Y015283D01*
X004559Y015252D01*
X006125Y015252D01*
X006121Y015260D01*
X006121Y015364D01*
X006161Y015459D01*
X006234Y015533D01*
X006329Y015572D01*
X006330Y015572D01*
X006390Y015632D01*
X007072Y015632D01*
X007201Y015503D01*
X007238Y015467D01*
X007377Y015524D01*
X007544Y015524D01*
X007698Y015460D01*
X007816Y015342D01*
X007854Y015251D01*
X007892Y015342D01*
X008010Y015460D01*
X008164Y015524D01*
X008331Y015524D01*
X008486Y015460D01*
X008604Y015342D01*
X008620Y015302D01*
X011403Y015302D01*
X011434Y015333D01*
X011529Y015372D01*
X011633Y015372D01*
X011728Y015333D01*
X011802Y015259D01*
X011841Y015164D01*
X011841Y015060D01*
X011802Y014965D01*
X011728Y014892D01*
X011633Y014852D01*
X011529Y014852D01*
X011434Y014892D01*
X011403Y014922D01*
X008627Y014922D01*
X008604Y014866D01*
X008488Y014751D01*
X008534Y014766D01*
X008581Y014773D01*
X008581Y014377D01*
X008701Y014377D01*
X008701Y014773D01*
X008749Y014766D01*
X008818Y014743D01*
X008882Y014710D01*
X008941Y014668D01*
X008992Y014617D01*
X009035Y014558D01*
X009068Y014494D01*
X009090Y014425D01*
X009098Y014377D01*
X008701Y014377D01*
X008701Y014257D01*
X009098Y014257D01*
X009090Y014209D01*
X009068Y014140D01*
X009035Y014076D01*
X008992Y014017D01*
X008941Y013966D01*
X008882Y013924D01*
X008841Y013902D01*
X010087Y013902D01*
X010111Y013959D01*
X010184Y014033D01*
X010279Y014072D01*
X010383Y014072D01*
X010478Y014033D01*
X010552Y013959D01*
X010591Y013864D01*
X010591Y013760D01*
X010552Y013665D01*
X010478Y013592D01*
X010383Y013552D01*
X010340Y013552D01*
X010310Y013522D01*
X008002Y013522D01*
X007952Y013572D01*
X007152Y013572D01*
X007064Y013660D02*
X005873Y013660D01*
X005967Y013502D02*
X012497Y013502D01*
X012497Y013660D02*
X010547Y013660D01*
X010591Y013819D02*
X012497Y013819D01*
X012497Y013977D02*
X010534Y013977D01*
X010128Y013977D02*
X008952Y013977D01*
X009065Y014136D02*
X012497Y014136D01*
X012497Y014294D02*
X008701Y014294D01*
X008701Y014453D02*
X008581Y014453D01*
X008581Y014611D02*
X008701Y014611D01*
X008701Y014770D02*
X008581Y014770D01*
X008560Y014770D02*
X008507Y014770D01*
X008723Y014770D02*
X012497Y014770D01*
X012497Y014928D02*
X011765Y014928D01*
X011841Y015087D02*
X012497Y015087D01*
X012497Y015245D02*
X011807Y015245D01*
X012071Y015562D02*
X011399Y015562D01*
X011491Y015721D02*
X011849Y015721D01*
X011849Y015879D02*
X011464Y015879D01*
X011702Y016352D02*
X009889Y016352D01*
X009952Y016415D01*
X009991Y016510D01*
X009991Y016614D01*
X009952Y016709D01*
X009878Y016783D01*
X009783Y016822D01*
X009679Y016822D01*
X009638Y016805D01*
X009638Y017040D01*
X009556Y017122D01*
X008534Y017122D01*
X008452Y017040D01*
X008452Y016352D01*
X007157Y016352D01*
X007157Y017040D01*
X007075Y017122D01*
X006771Y017122D01*
X006771Y017572D01*
X009103Y017572D01*
X009134Y017542D01*
X009229Y017502D01*
X009333Y017502D01*
X009428Y017542D01*
X009502Y017615D01*
X009541Y017710D01*
X009541Y017814D01*
X009502Y017909D01*
X009428Y017983D01*
X009333Y018022D01*
X009229Y018022D01*
X009134Y017983D01*
X009103Y017952D01*
X009038Y017952D01*
X009041Y017960D01*
X009041Y018064D01*
X009002Y018159D01*
X008928Y018233D01*
X008833Y018272D01*
X008790Y018272D01*
X008660Y018402D01*
X004509Y018402D01*
X004478Y018433D01*
X004383Y018472D01*
X004279Y018472D01*
X004184Y018433D01*
X004111Y018359D01*
X004071Y018264D01*
X004071Y018160D01*
X004111Y018065D01*
X004184Y017992D01*
X004279Y017952D01*
X004383Y017952D01*
X004478Y017992D01*
X004509Y018022D01*
X008502Y018022D01*
X008521Y018004D01*
X008521Y017960D01*
X008525Y017952D01*
X006602Y017952D01*
X006502Y017852D01*
X006391Y017741D01*
X006391Y017122D01*
X006054Y017122D01*
X005972Y017040D01*
X005972Y016352D01*
X003860Y016352D01*
X003671Y016541D01*
X003671Y016942D01*
X003684Y016942D01*
X003800Y017059D01*
X003800Y017499D01*
X003690Y017610D01*
X003714Y017620D01*
X003754Y017646D01*
X003787Y017680D01*
X003813Y017719D01*
X003831Y017762D01*
X003840Y017808D01*
X003840Y017951D01*
X003482Y017951D01*
X003482Y017988D01*
X003840Y017988D01*
X003840Y018131D01*
X003831Y018177D01*
X003813Y018221D01*
X003787Y018260D01*
X003754Y018293D01*
X003714Y018319D01*
X003671Y018337D01*
X003625Y018347D01*
X003482Y018347D01*
X003482Y017988D01*
X003445Y017988D01*
X003445Y018347D01*
X003302Y018347D01*
X003256Y018337D01*
X003212Y018319D01*
X003211Y018318D01*
X003211Y019161D01*
X003215Y019203D01*
X003247Y019280D01*
X003306Y019339D01*
X003383Y019371D01*
X003425Y019375D01*
X009746Y019375D01*
X009921Y019476D01*
X010022Y019651D01*
X010022Y020510D01*
X010026Y020515D01*
X010022Y020584D01*
X010022Y020606D01*
X010024Y020692D01*
X010076Y020892D01*
X010187Y021066D01*
X010346Y021197D01*
X010538Y021272D01*
X010638Y021286D01*
X011881Y021286D01*
X011981Y021272D01*
X012173Y021197D01*
X012332Y021066D01*
X012443Y020892D01*
X012495Y020692D01*
X012497Y020606D01*
X012497Y020584D01*
X012493Y020515D01*
X012497Y020510D01*
X012497Y018307D01*
X012495Y018308D01*
X012456Y018334D01*
X012413Y018352D01*
X012367Y018361D01*
X012224Y018361D01*
X012224Y018003D01*
X012187Y018003D01*
X012187Y018361D01*
X012044Y018361D01*
X011998Y018352D01*
X011954Y018334D01*
X011915Y018308D01*
X011882Y018275D01*
X011856Y018236D01*
X011838Y018192D01*
X011828Y018146D01*
X011828Y018083D01*
X011733Y018122D01*
X011629Y018122D01*
X011534Y018083D01*
X011533Y018082D01*
X011303Y018082D01*
X011303Y018132D01*
X011221Y018214D01*
X011186Y018214D01*
X011186Y018218D01*
X011091Y018313D01*
X011091Y018314D01*
X011052Y018409D01*
X010978Y018483D01*
X010883Y018522D01*
X010779Y018522D01*
X010684Y018483D01*
X010611Y018409D01*
X010571Y018314D01*
X010571Y018210D01*
X010611Y018115D01*
X010629Y018096D01*
X010629Y017583D01*
X010662Y017551D01*
X010659Y017549D01*
X010625Y017516D01*
X010602Y017475D01*
X010589Y017429D01*
X010589Y017207D01*
X010948Y017207D01*
X010948Y017170D01*
X010985Y017170D01*
X010985Y017207D01*
X011343Y017207D01*
X011343Y017429D01*
X011331Y017475D01*
X011307Y017516D01*
X011274Y017549D01*
X011271Y017551D01*
X011303Y017583D01*
X011303Y017642D01*
X011533Y017642D01*
X011534Y017642D01*
X011629Y017602D01*
X011733Y017602D01*
X011828Y017642D01*
X011881Y017695D01*
X011882Y017694D01*
X011915Y017661D01*
X011954Y017635D01*
X011979Y017625D01*
X011868Y017514D01*
X011868Y017074D01*
X011985Y016957D01*
X012015Y016957D01*
X012015Y016926D01*
X011931Y016926D01*
X011849Y016844D01*
X011849Y016598D01*
X011841Y016591D01*
X011841Y016491D01*
X011702Y016352D01*
X011705Y016355D02*
X009891Y016355D01*
X009991Y016513D02*
X011841Y016513D01*
X011849Y016672D02*
X009967Y016672D01*
X009638Y016830D02*
X010657Y016830D01*
X010659Y016828D02*
X010700Y016804D01*
X010746Y016792D01*
X010948Y016792D01*
X010948Y017170D01*
X010589Y017170D01*
X010589Y016948D01*
X010602Y016903D01*
X010625Y016862D01*
X010659Y016828D01*
X010589Y016989D02*
X009638Y016989D01*
X009505Y017623D02*
X010629Y017623D01*
X010629Y017781D02*
X009541Y017781D01*
X009471Y017940D02*
X010629Y017940D01*
X010627Y018098D02*
X009027Y018098D01*
X008870Y018257D02*
X010571Y018257D01*
X010617Y018415D02*
X004496Y018415D01*
X004167Y018415D02*
X003211Y018415D01*
X003211Y018574D02*
X012497Y018574D01*
X012497Y018732D02*
X003211Y018732D01*
X003211Y018891D02*
X012497Y018891D01*
X012497Y019049D02*
X003211Y019049D01*
X003217Y019208D02*
X012497Y019208D01*
X012497Y019366D02*
X003373Y019366D01*
X003445Y018257D02*
X003482Y018257D01*
X003482Y018098D02*
X003445Y018098D01*
X003719Y017623D02*
X006391Y017623D01*
X006391Y017464D02*
X003800Y017464D01*
X003800Y017306D02*
X006391Y017306D01*
X006391Y017147D02*
X003800Y017147D01*
X003730Y016989D02*
X005972Y016989D01*
X005972Y016830D02*
X003671Y016830D01*
X003671Y016672D02*
X005972Y016672D01*
X005972Y016513D02*
X003699Y016513D01*
X003857Y016355D02*
X005972Y016355D01*
X006305Y015562D02*
X003211Y015562D01*
X003211Y015404D02*
X006138Y015404D01*
X006381Y015312D02*
X006481Y015412D01*
X006981Y015412D01*
X007289Y015104D01*
X007460Y015104D01*
X007755Y015404D02*
X007953Y015404D01*
X008542Y015404D02*
X012095Y015404D01*
X012497Y014611D02*
X008996Y014611D01*
X009081Y014453D02*
X012497Y014453D01*
X012497Y013343D02*
X005985Y013343D01*
X005985Y013185D02*
X012497Y013185D01*
X012497Y011124D02*
X009287Y011124D01*
X009273Y010966D02*
X012497Y010966D01*
X012497Y010807D02*
X011069Y010807D01*
X011227Y010649D02*
X012497Y010649D01*
X012497Y010490D02*
X012293Y010490D01*
X012304Y010332D02*
X012497Y010332D01*
X012497Y010173D02*
X012304Y010173D01*
X012304Y010015D02*
X012497Y010015D01*
X011920Y009698D02*
X011885Y009698D01*
X011930Y009222D02*
X011931Y009222D01*
X012497Y008271D02*
X010590Y008271D01*
X010641Y008113D02*
X010804Y008113D01*
X010817Y008126D02*
X010784Y008093D01*
X010760Y008052D01*
X010748Y008006D01*
X010748Y007804D01*
X011126Y007804D01*
X011126Y008162D01*
X010904Y008162D01*
X010859Y008150D01*
X010817Y008126D01*
X010748Y007954D02*
X010709Y007954D01*
X010709Y007796D02*
X011126Y007796D01*
X011126Y007804D02*
X011126Y007767D01*
X010748Y007767D01*
X010748Y007565D01*
X010760Y007519D01*
X010784Y007478D01*
X010817Y007445D01*
X010845Y007428D01*
X010788Y007371D01*
X010788Y006861D01*
X010870Y006779D01*
X011031Y006779D01*
X011011Y006759D01*
X010971Y006664D01*
X010971Y006560D01*
X011011Y006465D01*
X011084Y006392D01*
X011179Y006352D01*
X011283Y006352D01*
X011378Y006392D01*
X011452Y006465D01*
X011491Y006560D01*
X011491Y006664D01*
X011452Y006759D01*
X011425Y006786D01*
X011501Y006861D01*
X011501Y007371D01*
X011444Y007428D01*
X011472Y007445D01*
X011505Y007478D01*
X011529Y007519D01*
X011541Y007565D01*
X011541Y007767D01*
X011163Y007767D01*
X011163Y007804D01*
X011126Y007804D01*
X011163Y007804D02*
X011163Y008162D01*
X011385Y008162D01*
X011431Y008150D01*
X011472Y008126D01*
X011505Y008093D01*
X011529Y008052D01*
X011541Y008006D01*
X011541Y007804D01*
X011163Y007804D01*
X011163Y007796D02*
X012497Y007796D01*
X012497Y007954D02*
X011541Y007954D01*
X011485Y008113D02*
X012497Y008113D01*
X012497Y007637D02*
X011541Y007637D01*
X011506Y007479D02*
X012497Y007479D01*
X012497Y007320D02*
X011501Y007320D01*
X011501Y007162D02*
X012497Y007162D01*
X012497Y007003D02*
X011501Y007003D01*
X011485Y006845D02*
X012497Y006845D01*
X012497Y006686D02*
X011482Y006686D01*
X011478Y006528D02*
X012497Y006528D01*
X012497Y006369D02*
X011324Y006369D01*
X011138Y006369D02*
X010524Y006369D01*
X010338Y006369D02*
X009724Y006369D01*
X009538Y006369D02*
X006341Y006369D01*
X006183Y006211D02*
X012497Y006211D01*
X012497Y006052D02*
X003211Y006052D01*
X003211Y005894D02*
X011227Y005894D01*
X011264Y005931D02*
X011165Y005831D01*
X011165Y005520D01*
X011222Y005463D01*
X011165Y005406D01*
X011165Y005266D01*
X011250Y005180D01*
X011165Y005095D01*
X011165Y004784D01*
X011194Y004755D01*
X011165Y004726D01*
X011165Y004586D01*
X011335Y004415D01*
X011435Y004316D01*
X011575Y004316D01*
X011675Y004415D01*
X011675Y004486D01*
X011746Y004486D01*
X011845Y004586D01*
X011845Y004726D01*
X011817Y004755D01*
X011845Y004784D01*
X011845Y005095D01*
X011817Y005123D01*
X011845Y005152D01*
X011845Y005293D01*
X011802Y005336D01*
X011845Y005379D01*
X011845Y005520D01*
X011845Y005520D01*
X011845Y005520D01*
X011845Y005831D01*
X011788Y005888D01*
X011689Y005988D01*
X011321Y005988D01*
X011264Y005931D01*
X011165Y005735D02*
X003211Y005735D01*
X003211Y005577D02*
X006269Y005577D01*
X006286Y005593D02*
X006142Y005450D01*
X006114Y005381D01*
X005108Y005381D01*
X005108Y005421D01*
X005026Y005503D01*
X004497Y005503D01*
X004415Y005421D01*
X004415Y004931D01*
X004497Y004849D01*
X005026Y004849D01*
X005108Y004931D01*
X005108Y004941D01*
X006114Y004941D01*
X006142Y004872D01*
X006286Y004729D01*
X006473Y004651D01*
X006676Y004651D01*
X006863Y004729D01*
X007007Y004872D01*
X007042Y004956D01*
X007076Y004872D01*
X007220Y004729D01*
X007407Y004651D01*
X007610Y004651D01*
X007798Y004729D01*
X007941Y004872D01*
X007952Y004900D01*
X007964Y004872D01*
X008107Y004729D01*
X008295Y004651D01*
X008498Y004651D01*
X008685Y004729D01*
X008828Y004872D01*
X008843Y004907D01*
X008860Y004873D01*
X008911Y004803D01*
X008972Y004742D01*
X009042Y004691D01*
X009119Y004651D01*
X009202Y004625D01*
X009287Y004611D01*
X009320Y004611D01*
X009320Y005151D01*
X009340Y005151D01*
X009340Y004611D01*
X009374Y004611D01*
X009459Y004625D01*
X009542Y004651D01*
X009619Y004691D01*
X009689Y004742D01*
X009750Y004803D01*
X009801Y004873D01*
X009840Y004950D01*
X009867Y005032D01*
X009880Y005118D01*
X009880Y005151D01*
X009340Y005151D01*
X009340Y005171D01*
X009320Y005171D01*
X009320Y005711D01*
X009287Y005711D01*
X009202Y005697D01*
X009119Y005671D01*
X009042Y005631D01*
X008972Y005581D01*
X008911Y005519D01*
X008860Y005449D01*
X008843Y005415D01*
X008828Y005450D01*
X008685Y005593D01*
X008498Y005671D01*
X008295Y005671D01*
X008107Y005593D01*
X007964Y005450D01*
X007952Y005423D01*
X007941Y005450D01*
X007798Y005593D01*
X007610Y005671D01*
X007407Y005671D01*
X007220Y005593D01*
X007076Y005450D01*
X007042Y005366D01*
X007007Y005450D01*
X006863Y005593D01*
X006676Y005671D01*
X006473Y005671D01*
X006286Y005593D01*
X006129Y005418D02*
X005108Y005418D01*
X004776Y005161D02*
X004761Y005176D01*
X004776Y005161D02*
X006574Y005161D01*
X006919Y004784D02*
X007164Y004784D01*
X007047Y004943D02*
X007036Y004943D01*
X007020Y005418D02*
X007063Y005418D01*
X007203Y005577D02*
X006880Y005577D01*
X006500Y006528D02*
X009385Y006528D01*
X009380Y006686D02*
X006658Y006686D01*
X006817Y006845D02*
X007224Y006845D01*
X007510Y006845D02*
X007547Y006845D01*
X007547Y007003D02*
X007510Y007003D01*
X007510Y007162D02*
X007547Y007162D01*
X007547Y007320D02*
X007510Y007320D01*
X007510Y007479D02*
X007547Y007479D01*
X007905Y007479D02*
X009311Y007479D01*
X009280Y007637D02*
X008217Y007637D01*
X008335Y007796D02*
X009280Y007796D01*
X009280Y007954D02*
X008324Y007954D01*
X008156Y008113D02*
X008663Y008113D01*
X009099Y008113D02*
X009763Y008113D01*
X009962Y007479D02*
X010027Y007479D01*
X009993Y007320D02*
X009995Y007320D01*
X009993Y007162D02*
X009995Y007162D01*
X009993Y007003D02*
X009995Y007003D01*
X009993Y006845D02*
X009995Y006845D01*
X009882Y006686D02*
X010180Y006686D01*
X010185Y006528D02*
X009878Y006528D01*
X009280Y006845D02*
X007834Y006845D01*
X007925Y007003D02*
X009280Y007003D01*
X009280Y007162D02*
X007925Y007162D01*
X007925Y007320D02*
X009280Y007320D01*
X009340Y005711D02*
X009340Y005171D01*
X009880Y005171D01*
X009880Y005204D01*
X009867Y005290D01*
X009840Y005372D01*
X009801Y005449D01*
X009750Y005519D01*
X009689Y005581D01*
X009619Y005631D01*
X009542Y005671D01*
X009459Y005697D01*
X009374Y005711D01*
X009340Y005711D01*
X009340Y005577D02*
X009320Y005577D01*
X009320Y005418D02*
X009340Y005418D01*
X009340Y005260D02*
X009320Y005260D01*
X009320Y005101D02*
X009340Y005101D01*
X009340Y004943D02*
X009320Y004943D01*
X009320Y004784D02*
X009340Y004784D01*
X009340Y004626D02*
X009320Y004626D01*
X009198Y004626D02*
X005986Y004626D01*
X005960Y004652D02*
X005771Y004730D01*
X005567Y004730D01*
X005378Y004652D01*
X005233Y004507D01*
X005155Y004318D01*
X005155Y004114D01*
X005233Y003925D01*
X005378Y003780D01*
X005567Y003702D01*
X005771Y003702D01*
X005960Y003780D01*
X006105Y003925D01*
X006183Y004114D01*
X006183Y004318D01*
X006105Y004507D01*
X005960Y004652D01*
X006121Y004467D02*
X009784Y004467D01*
X009800Y004507D02*
X009722Y004318D01*
X009722Y004114D01*
X009800Y003925D01*
X009945Y003780D01*
X010134Y003702D01*
X010338Y003702D01*
X010527Y003780D01*
X010672Y003925D01*
X010750Y004114D01*
X010750Y004318D01*
X010672Y004507D01*
X010527Y004652D01*
X010338Y004730D01*
X010134Y004730D01*
X009945Y004652D01*
X009800Y004507D01*
X009919Y004626D02*
X009463Y004626D01*
X009731Y004784D02*
X011165Y004784D01*
X011165Y004626D02*
X010553Y004626D01*
X010688Y004467D02*
X011283Y004467D01*
X011335Y004415D02*
X011335Y004415D01*
X011675Y004467D02*
X012497Y004467D01*
X012497Y004309D02*
X010750Y004309D01*
X010750Y004150D02*
X012497Y004150D01*
X012497Y003992D02*
X011890Y003992D01*
X011807Y004026D02*
X011578Y004026D01*
X011368Y003939D01*
X011206Y003777D01*
X011119Y003566D01*
X011119Y003338D01*
X011206Y003127D01*
X011368Y002966D01*
X011578Y002879D01*
X011807Y002879D01*
X012018Y002966D01*
X012179Y003127D01*
X012266Y003338D01*
X012266Y003566D01*
X012179Y003777D01*
X012018Y003939D01*
X011807Y004026D01*
X011496Y003992D02*
X010699Y003992D01*
X010580Y003833D02*
X011262Y003833D01*
X011164Y003675D02*
X004544Y003675D01*
X004502Y003777D02*
X004589Y003566D01*
X004589Y003338D01*
X004502Y003127D01*
X004340Y002966D01*
X004130Y002879D01*
X003901Y002879D01*
X003690Y002966D01*
X003529Y003127D01*
X003442Y003338D01*
X003442Y003566D01*
X003529Y003777D01*
X003690Y003939D01*
X003901Y004026D01*
X004130Y004026D01*
X004340Y003939D01*
X004502Y003777D01*
X004446Y003833D02*
X005325Y003833D01*
X005206Y003992D02*
X004212Y003992D01*
X003818Y003992D02*
X003211Y003992D01*
X003211Y004150D02*
X005155Y004150D01*
X005155Y004309D02*
X003211Y004309D01*
X003211Y004467D02*
X005217Y004467D01*
X005352Y004626D02*
X003211Y004626D01*
X003211Y004784D02*
X006230Y004784D01*
X006183Y004309D02*
X009722Y004309D01*
X009722Y004150D02*
X006183Y004150D01*
X006132Y003992D02*
X009772Y003992D01*
X009892Y003833D02*
X006013Y003833D01*
X004589Y003516D02*
X011119Y003516D01*
X011119Y003358D02*
X004589Y003358D01*
X004532Y003199D02*
X011176Y003199D01*
X011293Y003041D02*
X004415Y003041D01*
X004138Y002882D02*
X011570Y002882D01*
X011815Y002882D02*
X012360Y002882D01*
X012450Y003041D02*
X012092Y003041D01*
X012209Y003199D02*
X012492Y003199D01*
X012497Y003358D02*
X012266Y003358D01*
X012266Y003516D02*
X012497Y003516D01*
X012497Y003675D02*
X012221Y003675D01*
X012123Y003833D02*
X012497Y003833D01*
X012497Y004626D02*
X011845Y004626D01*
X011845Y004784D02*
X012497Y004784D01*
X012497Y004943D02*
X011845Y004943D01*
X011839Y005101D02*
X012497Y005101D01*
X012497Y005260D02*
X011845Y005260D01*
X011845Y005418D02*
X012497Y005418D01*
X012497Y005577D02*
X011845Y005577D01*
X011845Y005735D02*
X012497Y005735D01*
X012497Y005894D02*
X011783Y005894D01*
X011165Y005577D02*
X009693Y005577D01*
X009817Y005418D02*
X011177Y005418D01*
X011171Y005260D02*
X009872Y005260D01*
X009878Y005101D02*
X011171Y005101D01*
X011165Y004943D02*
X009836Y004943D01*
X008929Y004784D02*
X008741Y004784D01*
X008842Y005418D02*
X008844Y005418D01*
X008968Y005577D02*
X008702Y005577D01*
X008091Y005577D02*
X007814Y005577D01*
X007853Y004784D02*
X008052Y004784D01*
X007945Y007637D02*
X007080Y007637D01*
X009095Y010807D02*
X010893Y010807D01*
X010238Y011758D02*
X010229Y011758D01*
X010229Y012075D02*
X010238Y012075D01*
X010274Y012234D02*
X010193Y012234D01*
X010172Y012868D02*
X010295Y012868D01*
X010935Y012868D02*
X011007Y012868D01*
X009475Y011758D02*
X009449Y011758D01*
X009500Y011600D02*
X009272Y011600D01*
X009106Y011382D02*
X008619Y011382D01*
X008884Y011283D02*
X008979Y011322D01*
X009083Y011322D01*
X009178Y011283D01*
X011126Y008113D02*
X011163Y008113D01*
X011163Y007954D02*
X011126Y007954D01*
X010748Y007637D02*
X010709Y007637D01*
X010678Y007479D02*
X010784Y007479D01*
X010788Y007320D02*
X010709Y007320D01*
X010709Y007162D02*
X010788Y007162D01*
X010788Y007003D02*
X010709Y007003D01*
X010709Y006845D02*
X010805Y006845D01*
X010682Y006686D02*
X010980Y006686D01*
X010985Y006528D02*
X010678Y006528D01*
X012178Y002724D02*
X003530Y002724D01*
X003348Y002882D02*
X003893Y002882D01*
X003616Y003041D02*
X003258Y003041D01*
X003216Y003199D02*
X003499Y003199D01*
X003442Y003358D02*
X003211Y003358D01*
X003211Y003516D02*
X003442Y003516D01*
X003487Y003675D02*
X003211Y003675D01*
X003211Y003833D02*
X003585Y003833D01*
X003211Y004943D02*
X004415Y004943D01*
X004415Y005101D02*
X003211Y005101D01*
X003211Y005260D02*
X004415Y005260D01*
X004415Y005418D02*
X003211Y005418D01*
X003211Y006211D02*
X004415Y006211D01*
X004415Y006369D02*
X003211Y006369D01*
X003211Y006528D02*
X004415Y006528D01*
X004460Y006686D02*
X003233Y006686D01*
X003226Y013819D02*
X006656Y013819D01*
X006497Y013977D02*
X003211Y013977D01*
X003211Y014136D02*
X004152Y014136D01*
X004121Y014294D02*
X003211Y014294D01*
X003211Y014453D02*
X004204Y014453D01*
X004155Y014928D02*
X003211Y014928D01*
X003211Y014770D02*
X006509Y014770D01*
X006668Y014453D02*
X004558Y014453D01*
X004121Y015087D02*
X003211Y015087D01*
X003211Y015245D02*
X004196Y015245D01*
X003637Y016038D02*
X003211Y016038D01*
X003211Y016196D02*
X003478Y016196D01*
X003320Y016355D02*
X003211Y016355D01*
X003211Y016513D02*
X003291Y016513D01*
X003291Y016672D02*
X003211Y016672D01*
X003211Y016830D02*
X003291Y016830D01*
X003211Y015879D02*
X010378Y015879D01*
X010388Y015721D02*
X003211Y015721D01*
X003211Y014611D02*
X006767Y014611D01*
X007142Y015562D02*
X010555Y015562D01*
X010707Y015562D02*
X011063Y015562D01*
X010985Y016792D02*
X011187Y016792D01*
X011233Y016804D01*
X011274Y016828D01*
X011307Y016862D01*
X011331Y016903D01*
X011343Y016948D01*
X011343Y017170D01*
X010985Y017170D01*
X010985Y016792D01*
X010985Y016830D02*
X010948Y016830D01*
X010948Y016989D02*
X010985Y016989D01*
X010985Y017147D02*
X010948Y017147D01*
X011276Y016830D02*
X011849Y016830D01*
X011953Y016989D02*
X011343Y016989D01*
X011343Y017147D02*
X011868Y017147D01*
X011868Y017306D02*
X011343Y017306D01*
X011334Y017464D02*
X011868Y017464D01*
X011782Y017623D02*
X011977Y017623D01*
X011828Y018098D02*
X011791Y018098D01*
X011870Y018257D02*
X011148Y018257D01*
X011046Y018415D02*
X012497Y018415D01*
X012224Y018257D02*
X012187Y018257D01*
X012187Y018098D02*
X012224Y018098D01*
X011681Y017862D02*
X010971Y017862D01*
X010966Y017858D01*
X010966Y018127D01*
X010831Y018262D01*
X011303Y018098D02*
X011572Y018098D01*
X011580Y017623D02*
X011303Y017623D01*
X010599Y017464D02*
X006771Y017464D01*
X006771Y017306D02*
X010589Y017306D01*
X010589Y017147D02*
X006771Y017147D01*
X007157Y016989D02*
X008452Y016989D01*
X008452Y016830D02*
X007157Y016830D01*
X007157Y016672D02*
X008452Y016672D01*
X008452Y016513D02*
X007157Y016513D01*
X007157Y016355D02*
X008452Y016355D01*
X006590Y017940D02*
X003840Y017940D01*
X003840Y018098D02*
X004097Y018098D01*
X004071Y018257D02*
X003789Y018257D01*
X003835Y017781D02*
X006431Y017781D01*
X009921Y019476D02*
X009921Y019476D01*
X009921Y019476D01*
X009950Y019525D02*
X012497Y019525D01*
X012497Y019683D02*
X010022Y019683D01*
X010022Y019842D02*
X012497Y019842D01*
X012497Y020000D02*
X010022Y020000D01*
X010022Y020159D02*
X011133Y020159D01*
X011211Y020126D02*
X011024Y020204D01*
X010880Y020347D01*
X010803Y020535D01*
X010803Y020738D01*
X010880Y020925D01*
X011024Y021069D01*
X011211Y021146D01*
X011414Y021146D01*
X011602Y021069D01*
X011745Y020925D01*
X011823Y020738D01*
X011823Y020535D01*
X011745Y020347D01*
X011602Y020204D01*
X011414Y020126D01*
X011211Y020126D01*
X011493Y020159D02*
X012497Y020159D01*
X012497Y020317D02*
X011715Y020317D01*
X011798Y020476D02*
X012497Y020476D01*
X012496Y020634D02*
X011823Y020634D01*
X011800Y020793D02*
X012469Y020793D01*
X012405Y020951D02*
X011719Y020951D01*
X011502Y021110D02*
X012279Y021110D01*
X011990Y021268D02*
X010529Y021268D01*
X010240Y021110D02*
X011123Y021110D01*
X010906Y020951D02*
X010114Y020951D01*
X010050Y020793D02*
X010825Y020793D01*
X010803Y020634D02*
X010023Y020634D01*
X010022Y020476D02*
X010827Y020476D01*
X010910Y020317D02*
X010022Y020317D01*
M02*
